;TYPE=PLATED
;Layer: PTH_Through_Via
;EasyEDA Pro v3.2.148, 2026-09-09 13:06:15
;Gerber Generator version 0.3
M48
METRIC,LZ,0000.00000
;Hole size 1 = 0.30500 METRIC
T01C0.30500
%
G05
G90
T01
X21.082Y11.938
X22.098Y11.94184
X23.114Y11.94184
X24.13Y11.94184
X25.52783Y9.144
X26.79783Y9.144
X28.06783Y9.144
X28.702Y14.732
X28.19458Y11.938
X20.066Y11.938
X21.71783Y4.064
X26.79783Y4.064
X28.06783Y4.064
X17.52646Y4.0509
X25.52783Y4.064
X18.28508Y9.56936
X16.51Y10.16
X16.62397Y9.25797
X16.605Y6.10201
X9.144Y1.778
X9.144Y3.302
X9.144Y4.82632
X8.636Y6.21695
X9.398Y11.17535
X8.636Y11.938
X29.972Y9.144
X25.4Y16.256
X16.29875Y15.748
X17.57538Y15.494
X30.734Y8.128
X33.02124Y8.382
X34.29124Y8.382
X36.83124Y9.906
X33.40095Y14.478
X35.814Y14.986
X7.874Y25.146
X14.30099Y25.146
X20.64141Y25.13203
X26.94428Y25.13203
X33.31817Y25.13203
X12.446Y25.146
X18.50621Y25.14587
X25.15653Y25.14473
X31.46021Y25.20559
X37.81974Y25.14473
X16.26309Y20.3206
X14.80699Y21.082
X14.224Y19.558
X24.892Y20.28684
X24.95332Y19.304
X25.654Y19.812
X7.43288Y18.03004
X7.62Y14.986
X7.50626Y21.03126
X8.636Y21.082
X9.906Y17.526
X9.906Y15.56137
X7.62Y12.446
X37.59276Y15.24
X10.922Y16.94161
X10.922Y16.07761
X24.52842Y15.33857
X20.574Y18.54194
X20.574Y19.61814
X20.574Y17.018
X18.542Y15.494
X19.812Y15.494
X19.70412Y20.27548
X20.58357Y20.2438
X21.27098Y20.24512
X19.558Y17.018
M30