G04 Layer: BottomSilkscreenLayer*
G04 EasyEDA Pro v3.2.148, 2026-09-09 13:06:15*
G04 Gerber Generator version 0.3*
G04 Scale: 100 percent, Rotated: No, Reflected: No*
G04 Dimensions in millimeters*
G04 Leading zeros omitted, absolute positions, 4 integers and 5 decimals*
G04 Generated by one-click*
G04 Object Configs: Pad,Via,Track,Text,Image,Dimension,BoardOutline,BoardCutout,CopperFilled,SolidRegion,FPCStiffener,Line,PlaneZone,ComponentProperty,ComponentSilkscreen,TearDrop*
G04 Layer Configs: 1,15,16,2,3,4,5,6,7,8,9,10,11,13,14,56*
G04 Copper Areas: 0*
%FSLAX45Y45*%
%MOMM*%
%ADD10C,0.1524*%
%ADD11C,0.2032*%
%ADD12C,0.254*%
%ADD13C,0.7608*%
G75*


G04 Text Start*
G54D10*
G01X3797808Y1155446D02*
G01X3806444Y1147064D01*
G01X3810508Y1134110D01*
G01X3810508Y1116838D01*
G01X3806444Y1104138D01*
G01X3797808Y1095502D01*
G01X3789172Y1095502D01*
G01X3780536Y1099820D01*
G01X3776218Y1104138D01*
G01X3772154Y1112774D01*
G01X3763518Y1138428D01*
G01X3759200Y1147064D01*
G01X3754882Y1151128D01*
G01X3746246Y1155446D01*
G01X3733546Y1155446D01*
G01X3724910Y1147064D01*
G01X3720592Y1134110D01*
G01X3720592Y1116838D01*
G01X3724910Y1104138D01*
G01X3733546Y1095502D01*
G01X3789172Y1255522D02*
G01X3797808Y1251204D01*
G01X3806444Y1242822D01*
G01X3810508Y1234186D01*
G01X3810508Y1216914D01*
G01X3806444Y1208532D01*
G01X3797808Y1199896D01*
G01X3789172Y1195578D01*
G01X3776218Y1191260D01*
G01X3754882Y1191260D01*
G01X3741928Y1195578D01*
G01X3733546Y1199896D01*
G01X3724910Y1208532D01*
G01X3720592Y1216914D01*
G01X3720592Y1234186D01*
G01X3724910Y1242822D01*
G01X3733546Y1251204D01*
G01X3741928Y1255522D01*
G01X3810508Y1291336D02*
G01X3720592Y1291336D01*
G01X3720592Y1291336D02*
G01X3720592Y1342898D01*
G01X3941572Y1155573D02*
G01X3950208Y1151255D01*
G01X3958844Y1142873D01*
G01X3962908Y1134237D01*
G01X3962908Y1116965D01*
G01X3958844Y1108583D01*
G01X3950208Y1099947D01*
G01X3941572Y1095629D01*
G01X3928618Y1091311D01*
G01X3907282Y1091311D01*
G01X3894328Y1095629D01*
G01X3885946Y1099947D01*
G01X3877310Y1108583D01*
G01X3872992Y1116965D01*
G01X3872992Y1134237D01*
G01X3877310Y1142873D01*
G01X3885946Y1151255D01*
G01X3894328Y1155573D01*
G01X3907282Y1155573D01*
G01X3907282Y1134237D02*
G01X3907282Y1155573D01*
G01X3962908Y1191387D02*
G01X3872992Y1191387D01*
G01X3962908Y1191387D02*
G01X3872992Y1251331D01*
G01X3962908Y1251331D02*
G01X3872992Y1251331D01*
G01X3962908Y1287145D02*
G01X3872992Y1287145D01*
G01X3962908Y1287145D02*
G01X3962908Y1317117D01*
G01X3958844Y1330071D01*
G01X3950208Y1338707D01*
G01X3941572Y1342771D01*
G01X3928618Y1347089D01*
G01X3907282Y1347089D01*
G01X3894328Y1342771D01*
G01X3885946Y1338707D01*
G01X3877310Y1330071D01*
G01X3872992Y1317117D01*
G01X3872992Y1287145D01*
G01X4102608Y1149096D02*
G01X4111244Y1140714D01*
G01X4115308Y1127760D01*
G01X4115308Y1110488D01*
G01X4111244Y1097788D01*
G01X4102608Y1089152D01*
G01X4093972Y1089152D01*
G01X4085336Y1093470D01*
G01X4081018Y1097788D01*
G01X4076954Y1106424D01*
G01X4068318Y1132078D01*
G01X4064000Y1140714D01*
G01X4059682Y1144778D01*
G01X4051046Y1149096D01*
G01X4038346Y1149096D01*
G01X4029710Y1140714D01*
G01X4025392Y1127760D01*
G01X4025392Y1110488D01*
G01X4029710Y1097788D01*
G01X4038346Y1089152D01*
G01X4115308Y1184910D02*
G01X4025392Y1184910D01*
G01X4115308Y1184910D02*
G01X4115308Y1214882D01*
G01X4111244Y1227836D01*
G01X4102608Y1236472D01*
G01X4093972Y1240536D01*
G01X4081018Y1244854D01*
G01X4059682Y1244854D01*
G01X4046728Y1240536D01*
G01X4038346Y1236472D01*
G01X4029710Y1227836D01*
G01X4025392Y1214882D01*
G01X4025392Y1184910D01*
G01X4115308Y1314958D02*
G01X4025392Y1280668D01*
G01X4115308Y1314958D02*
G01X4025392Y1349248D01*
G01X4055364Y1293622D02*
G01X4055364Y1336294D01*
G54D11*
G01X2647823Y554228D02*
G01X2647823Y480568D01*
G01X2642997Y465836D01*
G01X2633091Y455930D01*
G01X2618359Y451104D01*
G01X2608453Y451104D01*
G01X2593721Y455930D01*
G01X2583815Y465836D01*
G01X2578989Y480568D01*
G01X2578989Y554228D01*
G01X2466213Y539496D02*
G01X2475865Y549402D01*
G01X2490851Y554228D01*
G01X2510409Y554228D01*
G01X2525141Y549402D01*
G01X2535047Y539496D01*
G01X2535047Y529844D01*
G01X2530221Y519938D01*
G01X2525141Y514858D01*
G01X2515235Y510032D01*
G01X2485771Y500126D01*
G01X2475865Y495300D01*
G01X2471039Y490474D01*
G01X2466213Y480568D01*
G01X2466213Y465836D01*
G01X2475865Y455930D01*
G01X2490851Y451104D01*
G01X2510409Y451104D01*
G01X2525141Y455930D01*
G01X2535047Y465836D01*
G01X2422271Y554228D02*
G01X2422271Y451104D01*
G01X2422271Y554228D02*
G01X2378075Y554228D01*
G01X2363089Y549402D01*
G01X2358263Y544576D01*
G01X2353437Y534670D01*
G01X2353437Y524764D01*
G01X2358263Y514858D01*
G01X2363089Y510032D01*
G01X2378075Y505206D01*
G01X2422271Y505206D02*
G01X2378075Y505206D01*
G01X2363089Y500126D01*
G01X2358263Y495300D01*
G01X2353437Y485394D01*
G01X2353437Y470662D01*
G01X2358263Y460756D01*
G01X2363089Y455930D01*
G01X2378075Y451104D01*
G01X2422271Y451104D01*
G01X2309495Y495300D02*
G01X2220849Y495300D01*
G01X2102993Y529844D02*
G01X2108073Y539496D01*
G01X2117725Y549402D01*
G01X2127631Y554228D01*
G01X2147443Y554228D01*
G01X2157095Y549402D01*
G01X2167001Y539496D01*
G01X2172081Y529844D01*
G01X2176907Y514858D01*
G01X2176907Y490474D01*
G01X2172081Y475488D01*
G01X2167001Y465836D01*
G01X2157095Y455930D01*
G01X2147443Y451104D01*
G01X2127631Y451104D01*
G01X2117725Y455930D01*
G01X2108073Y465836D01*
G01X2102993Y475488D01*
G01X1909445Y554228D02*
G01X1948815Y451104D01*
G01X1909445Y554228D02*
G01X1870075Y451104D01*
G01X1934083Y485394D02*
G01X1884807Y485394D01*
G01X1826133Y554228D02*
G01X1826133Y451104D01*
G01X1826133Y554228D02*
G01X1791589Y554228D01*
G01X1776857Y549402D01*
G01X1766951Y539496D01*
G01X1762125Y529844D01*
G01X1757299Y514858D01*
G01X1757299Y490474D01*
G01X1762125Y475488D01*
G01X1766951Y465836D01*
G01X1776857Y455930D01*
G01X1791589Y451104D01*
G01X1826133Y451104D01*
G01X1713357Y554228D02*
G01X1673987Y451104D01*
G01X1634617Y554228D02*
G01X1673987Y451104D01*
G01X1551305Y554228D02*
G01X1590675Y451104D01*
G01X1551305Y554228D02*
G01X1511935Y451104D01*
G01X1575943Y485394D02*
G01X1526667Y485394D01*
G01X1467993Y554228D02*
G01X1467993Y451104D01*
G01X1467993Y554228D02*
G01X1399159Y451104D01*
G01X1399159Y554228D02*
G01X1399159Y451104D01*
G01X1281303Y529844D02*
G01X1286383Y539496D01*
G01X1296035Y549402D01*
G01X1305941Y554228D01*
G01X1325753Y554228D01*
G01X1335405Y549402D01*
G01X1345311Y539496D01*
G01X1350391Y529844D01*
G01X1355217Y514858D01*
G01X1355217Y490474D01*
G01X1350391Y475488D01*
G01X1345311Y465836D01*
G01X1335405Y455930D01*
G01X1325753Y451104D01*
G01X1305941Y451104D01*
G01X1296035Y455930D01*
G01X1286383Y465836D01*
G01X1281303Y475488D01*
G01X1237361Y554228D02*
G01X1237361Y451104D01*
G01X1237361Y554228D02*
G01X1173353Y554228D01*
G01X1237361Y505206D02*
G01X1197991Y505206D01*
G01X1237361Y451104D02*
G01X1173353Y451104D01*
G01X1129411Y554228D02*
G01X1129411Y451104D01*
G01X1129411Y554228D02*
G01X1094867Y554228D01*
G01X1080135Y549402D01*
G01X1070229Y539496D01*
G01X1065403Y529844D01*
G01X1060577Y514858D01*
G01X1060577Y490474D01*
G01X1065403Y475488D01*
G01X1070229Y465836D01*
G01X1080135Y455930D01*
G01X1094867Y451104D01*
G01X1129411Y451104D01*
G01X2766568Y376428D02*
G01X2766568Y273304D01*
G01X2766568Y376428D02*
G01X2722372Y376428D01*
G01X2707386Y371602D01*
G01X2702560Y366776D01*
G01X2697734Y356870D01*
G01X2697734Y342138D01*
G01X2702560Y332232D01*
G01X2707386Y327406D01*
G01X2722372Y322326D01*
G01X2766568Y322326D01*
G01X2624328Y376428D02*
G01X2633980Y371602D01*
G01X2643886Y361696D01*
G01X2648966Y352044D01*
G01X2653792Y337058D01*
G01X2653792Y312674D01*
G01X2648966Y297688D01*
G01X2643886Y288036D01*
G01X2633980Y278130D01*
G01X2624328Y273304D01*
G01X2604516Y273304D01*
G01X2594610Y278130D01*
G01X2584958Y288036D01*
G01X2579878Y297688D01*
G01X2575052Y312674D01*
G01X2575052Y337058D01*
G01X2579878Y352044D01*
G01X2584958Y361696D01*
G01X2594610Y371602D01*
G01X2604516Y376428D01*
G01X2624328Y376428D01*
G01X2531110Y376428D02*
G01X2506472Y273304D01*
G01X2481834Y376428D02*
G01X2506472Y273304D01*
G01X2481834Y376428D02*
G01X2457196Y273304D01*
G01X2432558Y376428D02*
G01X2457196Y273304D01*
G01X2388616Y376428D02*
G01X2388616Y273304D01*
G01X2388616Y376428D02*
G01X2324608Y376428D01*
G01X2388616Y327406D02*
G01X2349246Y327406D01*
G01X2388616Y273304D02*
G01X2324608Y273304D01*
G01X2280666Y376428D02*
G01X2280666Y273304D01*
G01X2280666Y376428D02*
G01X2236470Y376428D01*
G01X2221484Y371602D01*
G01X2216658Y366776D01*
G01X2211832Y356870D01*
G01X2211832Y346964D01*
G01X2216658Y337058D01*
G01X2221484Y332232D01*
G01X2236470Y327406D01*
G01X2280666Y327406D01*
G01X2246122Y327406D02*
G01X2211832Y273304D01*
G01X1988820Y361696D02*
G01X1998472Y371602D01*
G01X2013458Y376428D01*
G01X2033016Y376428D01*
G01X2047748Y371602D01*
G01X2057654Y361696D01*
G01X2057654Y352044D01*
G01X2052828Y342138D01*
G01X2047748Y337058D01*
G01X2037842Y332232D01*
G01X2008378Y322326D01*
G01X1998472Y317500D01*
G01X1993646Y312674D01*
G01X1988820Y302768D01*
G01X1988820Y288036D01*
G01X1998472Y278130D01*
G01X2013458Y273304D01*
G01X2033016Y273304D01*
G01X2047748Y278130D01*
G01X2057654Y288036D01*
G01X1944878Y376428D02*
G01X1944878Y302768D01*
G01X1940052Y288036D01*
G01X1930146Y278130D01*
G01X1915414Y273304D01*
G01X1905508Y273304D01*
G01X1890776Y278130D01*
G01X1880870Y288036D01*
G01X1876044Y302768D01*
G01X1876044Y376428D01*
G01X1832102Y376428D02*
G01X1832102Y273304D01*
G01X1832102Y376428D02*
G01X1787906Y376428D01*
G01X1772920Y371602D01*
G01X1768094Y366776D01*
G01X1763268Y356870D01*
G01X1763268Y342138D01*
G01X1768094Y332232D01*
G01X1772920Y327406D01*
G01X1787906Y322326D01*
G01X1832102Y322326D01*
G01X1719326Y376428D02*
G01X1719326Y273304D01*
G01X1719326Y376428D02*
G01X1675130Y376428D01*
G01X1660144Y371602D01*
G01X1655318Y366776D01*
G01X1650492Y356870D01*
G01X1650492Y342138D01*
G01X1655318Y332232D01*
G01X1660144Y327406D01*
G01X1675130Y322326D01*
G01X1719326Y322326D01*
G01X1606550Y376428D02*
G01X1606550Y273304D01*
G01X1606550Y273304D02*
G01X1547368Y273304D01*
G01X1503426Y376428D02*
G01X1464056Y327406D01*
G01X1464056Y273304D01*
G01X1424686Y376428D02*
G01X1464056Y327406D01*
G01X1270508Y376428D02*
G01X1231138Y273304D01*
G01X1191768Y376428D02*
G01X1231138Y273304D01*
G01X1147826Y356870D02*
G01X1137920Y361696D01*
G01X1123188Y376428D01*
G01X1123188Y273304D01*
G01X1079246Y356870D02*
G01X1069340Y361696D01*
G01X1054608Y376428D01*
G01X1054608Y273304D01*
G01X981202Y376428D02*
G01X995934Y371602D01*
G01X1005840Y356870D01*
G01X1010666Y332232D01*
G01X1010666Y317500D01*
G01X1005840Y292862D01*
G01X995934Y278130D01*
G01X981202Y273304D01*
G01X971296Y273304D01*
G01X956564Y278130D01*
G01X946658Y292862D01*
G01X941832Y317500D01*
G01X941832Y332232D01*
G01X946658Y356870D01*
G01X956564Y371602D01*
G01X971296Y376428D01*
G01X981202Y376428D01*
G01X2522165Y218477D02*
G01X2532071Y208571D01*
G01X2541977Y193839D01*
G01X2551883Y174281D01*
G01X2556709Y149643D01*
G01X2556709Y129831D01*
G01X2551883Y105193D01*
G01X2541977Y85635D01*
G01X2532071Y70903D01*
G01X2522165Y60997D01*
G01X2404309Y174281D02*
G01X2409389Y183933D01*
G01X2419041Y193839D01*
G01X2428947Y198665D01*
G01X2448759Y198665D01*
G01X2458411Y193839D01*
G01X2468317Y183933D01*
G01X2473397Y174281D01*
G01X2478223Y159295D01*
G01X2478223Y134911D01*
G01X2473397Y119925D01*
G01X2468317Y110273D01*
G01X2458411Y100367D01*
G01X2448759Y95541D01*
G01X2428947Y95541D01*
G01X2419041Y100367D01*
G01X2409389Y110273D01*
G01X2404309Y119925D01*
G01X2360367Y218477D02*
G01X2350461Y208571D01*
G01X2340555Y193839D01*
G01X2330903Y174281D01*
G01X2325823Y149643D01*
G01X2325823Y129831D01*
G01X2330903Y105193D01*
G01X2340555Y85635D01*
G01X2350461Y70903D01*
G01X2360367Y60997D01*
G01X2281881Y198665D02*
G01X2281881Y95541D01*
G01X2213047Y198665D02*
G01X2281881Y129831D01*
G01X2257243Y154469D02*
G01X2213047Y95541D01*
G01X2129735Y198665D02*
G01X2169105Y95541D01*
G01X2129735Y198665D02*
G01X2090365Y95541D01*
G01X2154373Y129831D02*
G01X2105097Y129831D01*
G01X2046423Y198665D02*
G01X2046423Y95541D01*
G01X2046423Y198665D02*
G01X2002227Y198665D01*
G01X1987241Y193839D01*
G01X1982415Y189013D01*
G01X1977589Y179107D01*
G01X1977589Y169201D01*
G01X1982415Y159295D01*
G01X1987241Y154469D01*
G01X2002227Y149643D01*
G01X2046423Y149643D01*
G01X2011879Y149643D02*
G01X1977589Y95541D01*
G01X1899103Y198665D02*
G01X1899103Y95541D01*
G01X1933647Y198665D02*
G01X1864813Y198665D01*
G01X1820871Y198665D02*
G01X1820871Y95541D01*
G01X1752037Y198665D02*
G01X1752037Y95541D01*
G01X1820871Y149643D02*
G01X1752037Y149643D01*
G01X1708095Y198665D02*
G01X1708095Y95541D01*
G01X1549091Y174281D02*
G01X1549091Y179107D01*
G01X1544011Y189013D01*
G01X1539185Y193839D01*
G01X1529279Y198665D01*
G01X1509721Y198665D01*
G01X1499815Y193839D01*
G01X1494735Y189013D01*
G01X1489909Y179107D01*
G01X1489909Y169201D01*
G01X1494735Y159295D01*
G01X1504641Y144563D01*
G01X1553917Y95541D01*
G01X1485083Y95541D01*
G01X1411677Y198665D02*
G01X1426409Y193839D01*
G01X1436315Y179107D01*
G01X1441141Y154469D01*
G01X1441141Y139737D01*
G01X1436315Y115099D01*
G01X1426409Y100367D01*
G01X1411677Y95541D01*
G01X1401771Y95541D01*
G01X1387039Y100367D01*
G01X1377133Y115099D01*
G01X1372307Y139737D01*
G01X1372307Y154469D01*
G01X1377133Y179107D01*
G01X1387039Y193839D01*
G01X1401771Y198665D01*
G01X1411677Y198665D01*
G01X1323539Y174281D02*
G01X1323539Y179107D01*
G01X1318459Y189013D01*
G01X1313633Y193839D01*
G01X1303727Y198665D01*
G01X1284169Y198665D01*
G01X1274263Y193839D01*
G01X1269183Y189013D01*
G01X1264357Y179107D01*
G01X1264357Y169201D01*
G01X1269183Y159295D01*
G01X1279089Y144563D01*
G01X1328365Y95541D01*
G01X1259531Y95541D01*
G01X1156407Y183933D02*
G01X1161487Y193839D01*
G01X1176219Y198665D01*
G01X1186125Y198665D01*
G01X1200857Y193839D01*
G01X1210763Y179107D01*
G01X1215589Y154469D01*
G01X1215589Y129831D01*
G01X1210763Y110273D01*
G01X1200857Y100367D01*
G01X1186125Y95541D01*
G01X1181045Y95541D01*
G01X1166313Y100367D01*
G01X1156407Y110273D01*
G01X1151581Y125005D01*
G01X1151581Y129831D01*
G01X1156407Y144563D01*
G01X1166313Y154469D01*
G01X1181045Y159295D01*
G01X1186125Y159295D01*
G01X1200857Y154469D01*
G01X1210763Y144563D01*
G01X1215589Y129831D01*
G54D10*
G01X3921417Y959370D02*
G01X3921417Y865390D01*
G01X3927259Y847864D01*
G01X3933101Y842022D01*
G01X3944785Y836180D01*
G01X3956469Y836180D01*
G01X3968407Y842022D01*
G01X3974249Y847864D01*
G01X3980091Y865390D01*
G01X3980091Y877328D01*
G01X3866299Y959370D02*
G01X3801529Y959370D01*
G01X3836835Y912380D01*
G01X3819309Y912380D01*
G01X3807371Y906538D01*
G01X3801529Y900696D01*
G01X3795687Y883170D01*
G01X3795687Y871486D01*
G01X3801529Y853706D01*
G01X3813467Y842022D01*
G01X3830993Y836180D01*
G01X3848519Y836180D01*
G01X3866299Y842022D01*
G01X3872141Y847864D01*
G01X3877983Y859548D01*
G04 Text End*

G04 PolygonModel Start*
G54D12*
G01X2953093Y866931D02*
G01X2953093Y616932D01*
G01X3726091Y866931D02*
G01X3726091Y616932D01*
G01X3726091Y616932D02*
G01X2953093Y616932D01*
G01X2953093Y866931D02*
G01X3726091Y866931D01*
G01X3053075Y1048818D02*
G01X3053093Y866929D01*
G01X3118081Y1048818D02*
G01X3118081Y866929D01*
G01X3119029Y616932D02*
G01X3119029Y16931D01*
G01X3119029Y16931D02*
G01X3053075Y16931D01*
G01X3053075Y16931D02*
G01X3053075Y616932D01*
G01X3372076Y1048808D02*
G01X3372076Y866926D01*
G01X3307077Y1048808D02*
G01X3307077Y866926D01*
G01X3373029Y616924D02*
G01X3373029Y16931D01*
G01X3373029Y16931D02*
G01X3307077Y16931D01*
G01X3307077Y16931D02*
G01X3307077Y616924D01*
G01X3627041Y616932D02*
G01X3627041Y16933D01*
G01X3627041Y16933D02*
G01X3561090Y16933D01*
G01X3561090Y16933D02*
G01X3561090Y616932D01*
G01X3561090Y1048818D02*
G01X3561090Y866931D01*
G01X3626091Y1048818D02*
G01X3626091Y866931D01*

M02*

