G04 Layer: BottomLayer*
G04 EasyEDA Pro v3.2.148, 2026-09-09 13:06:15*
G04 Gerber Generator version 0.3*
G04 Scale: 100 percent, Rotated: No, Reflected: No*
G04 Dimensions in millimeters*
G04 Leading zeros omitted, absolute positions, 4 integers and 5 decimals*
G04 Generated by one-click*
G04 Object Configs: Pad,Via,Track,Text,Image,Dimension,BoardOutline,BoardCutout,CopperFilled,SolidRegion,FPCStiffener,Line,PlaneZone,ComponentProperty,ComponentSilkscreen,TearDrop*
G04 Layer Configs: 1,15,16,2,3,4,5,6,7,8,9,10,11,13,14,56*
G04 Copper Areas: 0*
%FSLAX45Y45*%
%MOMM*%
%ADD10O,2.0X1.1*%
%ADD11O,1.8X1.2*%
%ADD12R,2.2X2.2*%
%ADD13C,2.2*%
%ADD14R,1.01999X3.19999*%
%ADD15C,7.5*%
%ADD16C,0.6178*%
%ADD17C,0.61*%
%ADD18C,1.016*%
%ADD19C,0.15494*%
%ADD20C,0.508*%
%ADD21C,0.15748*%
G75*


G04 Pad Start*
G54D10*
G01X563512Y2083499D03*
G01X563512Y1218502D03*
G54D11*
G01X143497Y2083499D03*
G01X143497Y1218502D03*
G54D12*
G01X4318000Y1397000D03*
G54D13*
G01X4318000Y1905000D03*
G54D14*
G01X3086095Y1231932D03*
G01X3340095Y1231932D03*
G01X3594095Y1231932D03*
G54D15*
G01X406400Y406400D03*
G01X4165600Y406400D03*
G01X4165600Y2895600D03*
G01X406400Y2895600D03*
G04 Pad End*

G04 Via Start*
G54D17*
G01X2108200Y1193800D03*
G01X2209800Y1194184D03*
G01X2311400Y1194184D03*
G01X2413000Y1194184D03*
G01X2552783Y914400D03*
G01X2679783Y914400D03*
G01X2806783Y914400D03*
G01X2870200Y1473200D03*
G01X2819458Y1193800D03*
G01X2006600Y1193800D03*
G01X2171783Y406400D03*
G01X2679783Y406400D03*
G01X2806783Y406400D03*
G01X1752646Y405090D03*
G01X2552783Y406400D03*
G01X1828508Y956936D03*
G01X1651000Y1016000D03*
G01X1662397Y925797D03*
G01X1660500Y610201D03*
G01X914400Y177800D03*
G01X914400Y330200D03*
G01X914400Y482632D03*
G01X863600Y621695D03*
G01X939800Y1117535D03*
G01X863600Y1193800D03*
G01X2997200Y914400D03*
G01X2540000Y1625600D03*
G01X1629875Y1574800D03*
G01X1757538Y1549400D03*
G01X3073400Y812800D03*
G01X3302124Y838200D03*
G01X3429124Y838200D03*
G01X3683124Y990600D03*
G01X3340095Y1447800D03*
G01X3581400Y1498600D03*
G01X787400Y2514600D03*
G01X1430099Y2514600D03*
G01X2064141Y2513203D03*
G01X2694428Y2513203D03*
G01X3331817Y2513203D03*
G01X1244600Y2514600D03*
G01X1850621Y2514587D03*
G01X2515653Y2514473D03*
G01X3146021Y2520559D03*
G01X3781974Y2514473D03*
G01X1626309Y2032060D03*
G01X1480699Y2108200D03*
G01X1422400Y1955800D03*
G01X2489200Y2028684D03*
G01X2495332Y1930400D03*
G01X2565400Y1981200D03*
G01X743288Y1803004D03*
G01X762000Y1498600D03*
G01X750626Y2103126D03*
G01X863600Y2108200D03*
G01X990600Y1752600D03*
G01X990600Y1556137D03*
G01X762000Y1244600D03*
G01X3759276Y1524000D03*
G01X1092200Y1694161D03*
G01X1092200Y1607761D03*
G01X2452842Y1533857D03*
G01X2057400Y1854194D03*
G01X2057400Y1961814D03*
G01X2057400Y1701800D03*
G01X1854200Y1549400D03*
G01X1981200Y1549400D03*
G01X1970412Y2027548D03*
G01X2058357Y2024380D03*
G01X2127098Y2024512D03*
G01X1955800Y1701800D03*
G04 Via End*

G04 Track Start*
G54D18*
G01X2171783Y406400D02*
G01X1752600Y406400D01*
G54D19*
G01X2552783Y406400D02*
G01X2324183Y635000D01*
G01X2150444Y635000D02*
G01X1828508Y956936D01*
G01X2324183Y635000D02*
G01X2150444Y635000D01*
G01X1660500Y610201D02*
G01X1660500Y923900D01*
G01X1662397Y925797D01*
G01X2997200Y914400D02*
G01X2806783Y914400D01*
G01X2540000Y1625600D02*
G01X1680675Y1625600D01*
G01X1629875Y1574800D01*
G01X1828508Y956936D02*
G01X1828508Y1468555D01*
G01X1757538Y1539524D01*
G01X1757538Y1549400D01*
G01X2679783Y850817D02*
G01X2679783Y914400D01*
G01X3073400Y812800D02*
G01X2717800Y812800D01*
G01X2679783Y850817D01*
G01X3073400Y812800D02*
G01X3073400Y1219237D01*
G01X3086095Y1231932D01*
G54D20*
G01X3340095Y1231932D02*
G01X3340095Y1447800D01*
G54D19*
G01X3581400Y1498600D02*
G01X3594095Y1485905D01*
G01X3594095Y1231932D01*
G01X3594095Y800095D01*
G01X3505200Y711200D01*
G01X2692400Y711200D01*
G01X2552783Y850817D02*
G01X2552783Y914400D01*
G01X2692400Y711200D02*
G01X2552783Y850817D01*
G01X2209800Y1194184D02*
G01X2209800Y1397000D01*
G01X2834392Y2525008D02*
G01X2717800Y2641600D01*
G01X1977634Y2641600D01*
G01X1850621Y2514587D01*
G01X2311400Y1194184D02*
G01X2311400Y1320800D01*
G01X2413000Y1194184D02*
G01X2514600Y1194184D01*
G01X2615816Y1295400D01*
G01X2844800Y1295400D01*
G01X3146021Y1596621D01*
G01X3146021Y2520559D01*
G01X2870200Y1473200D02*
G01X2997200Y1600200D01*
G01X2997200Y2692400D01*
G01X2870200Y2819400D01*
G01X1549400Y2819400D01*
G01X1244600Y2514600D01*
G01X2108200Y1193800D02*
G01X2108200Y1041400D01*
G01X3860800Y2435647D02*
G01X3781974Y2514473D01*
G01X2108200Y1041400D02*
G01X2565400Y584200D01*
G01X3581400Y584200D01*
G01X3860800Y863600D01*
G01X3860800Y2435647D01*
G01X2641600Y1600200D02*
G01X2641600Y2388526D01*
G01X2515653Y2514473D01*
G01X609600Y1651000D02*
G01X609600Y1879600D01*
G01X762060Y2032060D01*
G01X1626309Y2032060D01*
G01X762000Y1498600D02*
G01X609600Y1651000D01*
G01X743288Y1803004D02*
G01X870684Y1930400D01*
G01X1397000Y1930400D01*
G01X1422400Y1955800D01*
G54D21*
G01X1092200Y1694161D02*
G01X1138448Y1694161D01*
G01X1092200Y1607761D02*
G01X1138448Y1607761D01*
G01X1138448Y1694161D02*
G01X1163614Y1668995D01*
G01X1460500Y1668995D01*
G01X1138448Y1607761D02*
G01X1163614Y1632927D01*
G01X1460500Y1668995D02*
G01X1937805Y2146300D01*
G01X2442952Y2028684D02*
G01X2489200Y2028684D01*
G01X2449084Y1930400D02*
G01X2495332Y1930400D01*
G01X2411844Y1997576D02*
G01X2442952Y2028684D01*
G01X2417976Y1961508D02*
G01X2449084Y1930400D01*
G01X1163614Y1632927D02*
G01X1475440Y1632927D01*
G54D19*
G01X2834392Y1551692D02*
G01X2834392Y2525008D01*
G01X2311400Y1320800D02*
G01X2349500Y1358900D01*
G01X2641600Y1358900D01*
G01X2834392Y1551692D01*
G01X2209800Y1397000D02*
G01X2247900Y1435100D01*
G01X2476500Y1435100D01*
G01X2641600Y1600200D01*
G54D21*
G01X1475440Y1632927D02*
G01X1952745Y2110232D01*
G01X1937805Y2146300D02*
G01X2171700Y2146300D01*
G01X2320424Y1997576D01*
G01X2411844Y1997576D01*
G01X1952745Y2110232D02*
G01X2131568Y2110232D01*
G01X2280292Y1961508D01*
G01X2417976Y1961508D01*
G04 Track End*

M02*

