G04 Layer: TopLayer*
G04 EasyEDA Pro v3.2.148, 2026-09-09 13:06:15*
G04 Gerber Generator version 0.3*
G04 Scale: 100 percent, Rotated: No, Reflected: No*
G04 Dimensions in millimeters*
G04 Leading zeros omitted, absolute positions, 4 integers and 5 decimals*
G04 Generated by one-click*
G04 Object Configs: Pad,Via,Track,Text,Image,Dimension,BoardOutline,BoardCutout,CopperFilled,SolidRegion,FPCStiffener,Line,PlaneZone,ComponentProperty,ComponentSilkscreen,TearDrop*
G04 Layer Configs: 1,15,16,2,3,4,5,6,7,8,9,10,11,13,14,56*
G04 Copper Areas: 12*
%FSLAX45Y45*%
%MOMM*%
%AMRect*21,1,$1,$2,0,0,$3*%
%ADD10C,0.2032*%
%ADD11C,0.508*%
%ADD12R,0.54X0.5*%
%ADD13R,0.8X0.9*%
%ADD14Rect,0.6X0.6X135.0*%
%ADD15Rect,0.6X0.6X45.0*%
%ADD16R,1.1X0.55001*%
%ADD17R,1.1X0.3*%
%ADD18O,2.0X1.1*%
%ADD19O,1.8051X1.2*%
%ADD20O,1.8X1.2*%
%ADD21R,2.2X2.2*%
%ADD22C,2.2*%
%ADD23R,1.39954X1.0*%
%ADD24R,1.0X1.39954*%
%ADD25C,7.5*%
%ADD26R,0.4X0.51001*%
%ADD27R,0.54X0.56566*%
%ADD28R,0.56566X0.54*%
%ADD29O,0.55999X2.65501*%
%ADD30R,0.6X1.1*%
%ADD31O,0.60201X1.97099*%
%ADD32R,0.505X0.224*%
%ADD33R,0.9X1.4*%
%ADD34C,0.61*%
%ADD35C,0.15494*%
%ADD36C,0.381*%
%ADD37C,0.15748*%
G75*


G04 Copper Start*
G36*
G01X2103761Y1259965D02*
G01X2011039Y1259965D01*
G01X2002161Y1259965D01*
G01X1961005Y1259965D01*
G01X1957117Y1259192D01*
G01X1953821Y1256990D01*
G01X1951592Y1254760D01*
G01X1574800Y1254760D01*
G01X1570912Y1253987D01*
G01X1567616Y1251784D01*
G01X1466016Y1150184D01*
G01X1463813Y1146888D01*
G01X1463040Y1143000D01*
G01X1463040Y715408D01*
G01X1326316Y578684D01*
G01X1324113Y575388D01*
G01X1323340Y571500D01*
G01X1323340Y60960D01*
G01X1153160Y60960D01*
G01X1153160Y567292D01*
G01X1175584Y589716D01*
G01X1177787Y593012D01*
G01X1178560Y596900D01*
G01X1178560Y706992D01*
G01X1185308Y713740D01*
G01X1308100Y713740D01*
G01X1311988Y714513D01*
G01X1315284Y716716D01*
G01X1353384Y754816D01*
G01X1355587Y758112D01*
G01X1356360Y762000D01*
G01X1356360Y1176892D01*
G01X1528208Y1348740D01*
G01X2685507Y1348740D01*
G01X2743055Y1291192D01*
G01X2743055Y1087668D01*
G01X2690769Y1087668D01*
G01X2682170Y1086620D01*
G01X2674074Y1083538D01*
G01X2666955Y1078603D01*
G01X2659849Y1083511D01*
G01X2651774Y1086574D01*
G01X2643200Y1087615D01*
G01X2589200Y1087615D01*
G01X2580607Y1086569D01*
G01X2572516Y1083492D01*
G01X2565400Y1078563D01*
G01X2558284Y1083492D01*
G01X2550193Y1086569D01*
G01X2541600Y1087615D01*
G01X2487600Y1087615D01*
G01X2486092Y1087584D01*
G01X2486092Y1249805D01*
G01X2484731Y1254885D01*
G01X2481012Y1258604D01*
G01X2475932Y1259965D01*
G01X2421387Y1259965D01*
G01X2413000Y1260498D01*
G01X2404613Y1259965D01*
G01X2319787Y1259965D01*
G01X2311400Y1260498D01*
G01X2303013Y1259965D01*
G01X2218187Y1259965D01*
G01X2209800Y1260498D01*
G01X2201413Y1259965D01*
G01X2112639Y1259965D01*
G01X2108200Y1260114D01*
G01X2103761Y1259965D01*
G37*
G36*
G01X713070Y679753D02*
G01X684469Y708800D01*
G01X653130Y734870D01*
G01X619362Y757705D01*
G01X583497Y777082D01*
G01X545888Y792808D01*
G01X506906Y804730D01*
G01X466934Y812730D01*
G01X426366Y816729D01*
G01X385602Y816687D01*
G01X345042Y812606D01*
G01X305087Y804525D01*
G01X266129Y792525D01*
G01X228552Y776722D01*
G01X192726Y757273D01*
G01X159005Y734369D01*
G01X127719Y708236D01*
G01X99177Y679131D01*
G01X73660Y647340D01*
G01X73660Y1131362D01*
G01X86479Y1126576D01*
G01X99849Y1123665D01*
G01X113497Y1122688D01*
G01X173497Y1122688D01*
G01X192159Y1124523D01*
G01X210106Y1129957D01*
G01X226650Y1138783D01*
G01X241159Y1150662D01*
G01X253076Y1165140D01*
G01X261945Y1181661D01*
G01X267427Y1199593D01*
G01X269311Y1218250D01*
G01X267525Y1236916D01*
G01X262138Y1254877D01*
G01X253355Y1271445D01*
G01X241514Y1285985D01*
G01X227068Y1297940D01*
G01X474504Y1297940D01*
G01X459410Y1287451D01*
G01X446736Y1274138D01*
G01X437004Y1258546D01*
G01X430610Y1241314D01*
G01X427817Y1223146D01*
G01X428739Y1204789D01*
G01X433339Y1186993D01*
G01X441428Y1170488D01*
G01X452675Y1155950D01*
G01X466619Y1143974D01*
G01X482688Y1135052D01*
G01X500226Y1129548D01*
G01X518512Y1127688D01*
G01X608512Y1127688D01*
G01X626798Y1129548D01*
G01X644335Y1135052D01*
G01X660405Y1143974D01*
G01X674348Y1155950D01*
G01X685595Y1170488D01*
G01X693684Y1186993D01*
G01X698284Y1204789D01*
G01X699207Y1223146D01*
G01X696414Y1241314D01*
G01X690020Y1258546D01*
G01X680287Y1274138D01*
G01X667614Y1287451D01*
G01X652519Y1297940D01*
G01X735833Y1297940D01*
G01X738297Y1295476D01*
G01X745715Y1289784D01*
G01X754352Y1286206D01*
G01X763622Y1284986D01*
G01X1084996Y1284986D01*
G01X1094740Y1275242D01*
G01X1094740Y1066800D01*
G01X1095513Y1062912D01*
G01X1097716Y1059616D01*
G01X1107186Y1050146D01*
G01X1107186Y1043399D01*
G01X1108406Y1034130D01*
G01X1111984Y1025492D01*
G01X1117676Y1018075D01*
G01X1134585Y1001165D01*
G01X1134585Y838200D01*
G01X1134675Y835660D01*
G01X1076340Y835660D01*
G01X1082846Y843322D01*
G01X1086966Y852490D01*
G01X1088377Y862442D01*
G01X1088377Y972442D01*
G01X1086624Y983509D01*
G01X1081537Y993493D01*
G01X1073614Y1001416D01*
G01X1063630Y1006503D01*
G01X1052563Y1008256D01*
G01X992563Y1008256D01*
G01X981496Y1006503D01*
G01X971512Y1001416D01*
G01X963589Y993493D01*
G01X958502Y983509D01*
G01X956749Y972442D01*
G01X956749Y961003D01*
G01X892042Y961003D01*
G01X880767Y959519D01*
G01X870261Y955167D01*
G01X861240Y948244D01*
G01X832793Y919797D01*
G01X826153Y911258D01*
G01X821821Y901346D01*
G01X820066Y890672D01*
G01X812118Y885044D01*
G01X805979Y877483D01*
G01X802105Y868548D01*
G01X800781Y858900D01*
G01X800781Y802334D01*
G01X802534Y791267D01*
G01X807621Y781283D01*
G01X815544Y773360D01*
G01X825528Y768273D01*
G01X836595Y766520D01*
G01X890595Y766520D01*
G01X900889Y768032D01*
G01X910315Y772438D01*
G01X918076Y779368D01*
G01X916940Y774700D01*
G01X916940Y584200D01*
G01X917713Y580312D01*
G01X919916Y577016D01*
G01X950481Y546451D01*
G01X953777Y544249D01*
G01X957665Y543475D01*
G01X1079414Y543475D01*
G01X1079414Y48260D01*
G01X607656Y48260D01*
G01X642159Y69969D01*
G01X674341Y94990D01*
G01X703884Y123078D01*
G01X730499Y153956D01*
G01X753922Y187319D01*
G01X773923Y222839D01*
G01X790306Y260166D01*
G01X802909Y298934D01*
G01X811607Y338759D01*
G01X816316Y379251D01*
G01X816989Y420010D01*
G01X813618Y460635D01*
G01X806238Y500726D01*
G01X794922Y539888D01*
G01X779779Y577736D01*
G01X760961Y613897D01*
G01X738651Y648014D01*
G01X713070Y679753D01*
G37*
G36*
G01X970716Y832684D02*
G01X920175Y782144D01*
G01X924815Y791769D01*
G01X926409Y802334D01*
G01X926409Y858900D01*
G01X925579Y866568D01*
G01X923125Y873881D01*
G01X956749Y873881D01*
G01X956749Y862442D01*
G01X958507Y851358D01*
G01X963610Y841362D01*
G01X971556Y833436D01*
G01X970716Y832684D01*
G37*
G36*
G01X673503Y1866647D02*
G01X589658Y1866647D01*
G01X589658Y1917010D01*
G01X604055Y1911517D01*
G01X619368Y1909794D01*
G01X634627Y1911950D01*
G01X648863Y1917847D01*
G01X673503Y1917847D01*
G01X679043Y1918453D01*
G01X684321Y1920240D01*
G01X698500Y1920240D01*
G01X702388Y1921013D01*
G01X705684Y1923216D01*
G01X753454Y1970986D01*
G01X813249Y1970986D01*
G01X820265Y1966275D01*
G01X828189Y1963340D01*
G01X836580Y1962343D01*
G01X856788Y1962343D01*
G01X870412Y1962343D01*
G01X890580Y1962343D01*
G01X898972Y1963340D01*
G01X906896Y1966275D01*
G01X913912Y1970986D01*
G01X1173898Y1970986D01*
G01X1178978Y1972347D01*
G01X1182697Y1976066D01*
G01X1184058Y1981146D01*
G01X1184058Y2352040D01*
G01X4472940Y2352040D01*
G01X4472940Y1651000D01*
G01X4473713Y1647112D01*
G01X4475916Y1643816D01*
G01X4483972Y1635760D01*
G01X3822051Y1635760D01*
G01X3819897Y1646417D01*
G01X3814645Y1655936D01*
G01X3806779Y1663441D01*
G01X3797023Y1668240D01*
G01X3786276Y1669890D01*
G01X3766263Y1669890D01*
G01X3752289Y1669890D01*
G01X3732276Y1669890D01*
G01X3722130Y1668423D01*
G01X3712815Y1664141D01*
G01X3705095Y1657396D01*
G01X3699602Y1648740D01*
G01X3696786Y1638882D01*
G01X3162920Y2172748D01*
G01X3159624Y2174951D01*
G01X3155736Y2175724D01*
G01X1409700Y2175724D01*
G01X1405812Y2174951D01*
G01X1402516Y2172748D01*
G01X1313616Y2083848D01*
G01X1311413Y2080552D01*
G01X1310640Y2076664D01*
G01X1310640Y1905000D01*
G01X1312001Y1899920D01*
G01X1315720Y1896201D01*
G01X1320800Y1894840D01*
G01X1396296Y1894840D01*
G01X1409076Y1890838D01*
G01X1422400Y1889486D01*
G01X1435724Y1890838D01*
G01X1448504Y1894840D01*
G01X1507092Y1894840D01*
G01X1513840Y1888092D01*
G01X1513840Y1779689D01*
G01X1508061Y1772242D01*
G01X1504425Y1763545D01*
G01X1503185Y1754200D01*
G01X1503185Y1700200D01*
G01X1504425Y1690855D01*
G01X1508061Y1682158D01*
G01X1513840Y1674711D01*
G01X1513840Y1498600D01*
G01X1515201Y1493520D01*
G01X1518920Y1489801D01*
G01X1524000Y1488440D01*
G01X1731433Y1488440D01*
G01X1744214Y1484438D01*
G01X1757538Y1483086D01*
G01X1770862Y1484438D01*
G01X1783642Y1488440D01*
G01X1828096Y1488440D01*
G01X1840876Y1484438D01*
G01X1854200Y1483086D01*
G01X1867524Y1484438D01*
G01X1880304Y1488440D01*
G01X1955096Y1488440D01*
G01X1969906Y1484055D01*
G01X1985329Y1483215D01*
G01X2000527Y1485965D01*
G01X2014678Y1492157D01*
G01X2027012Y1501454D01*
G01X2036861Y1513352D01*
G01X2043690Y1527206D01*
G01X2047129Y1542264D01*
G01X2112465Y1607600D01*
G01X2114667Y1610896D01*
G01X2115441Y1614784D01*
G01X2115441Y1669308D01*
G01X2115967Y1669799D01*
G01X2128084Y1681916D01*
G01X2130287Y1685212D01*
G01X2131060Y1689100D01*
G01X2131060Y1762718D01*
G01X2133914Y1767180D01*
G01X2174656Y1767180D01*
G01X2174656Y1688684D01*
G01X2175429Y1684796D01*
G01X2177632Y1681500D01*
G01X2225045Y1634087D01*
G01X2225045Y1514703D01*
G01X2215743Y1514703D01*
G01X2211855Y1513930D01*
G01X2208559Y1511727D01*
G01X2103992Y1407160D01*
G01X1308100Y1407160D01*
G01X1304212Y1406387D01*
G01X1300916Y1404184D01*
G01X1275516Y1378784D01*
G01X1273313Y1375488D01*
G01X1272540Y1371600D01*
G01X1272540Y848360D01*
G01X1180559Y848273D01*
G01X1180559Y848527D01*
G01X1182662Y855344D01*
G01X1183373Y862442D01*
G01X1183373Y972442D01*
G01X1182662Y979540D01*
G01X1180559Y986357D01*
G01X1180559Y1016000D01*
G01X1179786Y1019888D01*
G01X1177583Y1023184D01*
G01X1153160Y1047607D01*
G01X1153160Y1277631D01*
G01X1152387Y1281519D01*
G01X1150184Y1284815D01*
G01X1107015Y1327984D01*
G01X1103719Y1330187D01*
G01X1099831Y1330960D01*
G01X913764Y1330960D01*
G01X906762Y1335641D01*
G01X898860Y1338558D01*
G01X890496Y1339548D01*
G01X869612Y1339548D01*
G01X857588Y1339548D01*
G01X836496Y1339548D01*
G01X828131Y1338558D01*
G01X820230Y1335641D01*
G01X813228Y1330960D01*
G01X767830Y1330960D01*
G01X720006Y1378784D01*
G01X716710Y1380987D01*
G01X712822Y1381760D01*
G01X709813Y1381760D01*
G01X697774Y1388056D01*
G01X684643Y1391541D01*
G01X671066Y1392044D01*
G01X657713Y1389540D01*
G01X645242Y1384153D01*
G01X581660Y1384153D01*
G01X581660Y1430892D01*
G01X586096Y1435327D01*
G01X673503Y1435327D01*
G01X678949Y1435912D01*
G01X684147Y1437640D01*
G01X735896Y1437640D01*
G01X749233Y1433527D01*
G01X763136Y1432296D01*
G01X792916Y1402516D01*
G01X796212Y1400313D01*
G01X800100Y1399540D01*
G01X1130300Y1399540D01*
G01X1134188Y1400313D01*
G01X1137484Y1402516D01*
G01X1162884Y1427916D01*
G01X1165087Y1431212D01*
G01X1165860Y1435100D01*
G01X1165860Y1892300D01*
G01X1164499Y1897380D01*
G01X1160780Y1901099D01*
G01X1155700Y1902460D01*
G01X790675Y1902460D01*
G01X786787Y1901687D01*
G01X783491Y1899484D01*
G01X758373Y1874366D01*
G01X755017Y1873442D01*
G01X752170Y1871438D01*
G01X749735Y1869004D01*
G01X733648Y1868614D01*
G01X718128Y1864360D01*
G01X684091Y1864360D01*
G01X678919Y1866069D01*
G01X673503Y1866647D01*
G37*
G36*
G01X1822136Y1534414D02*
G01X1823840Y1548145D01*
G01X1822657Y1561930D01*
G01X1818640Y1575170D01*
G01X1818640Y1611232D01*
G01X1842437Y1635029D01*
G01X1851639Y1639307D01*
G01X1859602Y1645598D01*
G01X1872625Y1658620D01*
G01X1920240Y1658620D01*
G01X1925320Y1659981D01*
G01X1929039Y1663700D01*
G01X1930400Y1668780D01*
G01X1930400Y1716395D01*
G01X1941184Y1727180D01*
G01X1989900Y1727180D01*
G01X2000967Y1728933D01*
G01X2010950Y1734020D01*
G01X2018874Y1741943D01*
G01X2023961Y1751927D01*
G01X2025714Y1762994D01*
G01X2025714Y1785394D01*
G01X2024616Y1794194D01*
G01X2025714Y1802994D01*
G01X2025714Y1825394D01*
G01X2024616Y1834194D01*
G01X2025714Y1842994D01*
G01X2025714Y1865394D01*
G01X2024616Y1874194D01*
G01X2025714Y1882994D01*
G01X2025714Y1905394D01*
G01X2024616Y1914194D01*
G01X2025714Y1922994D01*
G01X2025714Y1945394D01*
G01X2023961Y1956461D01*
G01X2018874Y1966445D01*
G01X2010950Y1974368D01*
G01X2000967Y1979455D01*
G01X1989900Y1981208D01*
G01X1939399Y1981208D01*
G01X1930400Y1980059D01*
G01X1930400Y2040492D01*
G01X1942228Y2052320D01*
G01X2148840Y2052320D01*
G01X2148840Y1998980D01*
G01X2105233Y1998980D01*
G01X2100153Y1997619D01*
G01X2096434Y1993900D01*
G01X2095073Y1988820D01*
G01X2095073Y1965217D01*
G01X2090616Y1955747D01*
G01X2089087Y1945394D01*
G01X2089087Y1922994D01*
G01X2090184Y1914194D01*
G01X2089087Y1905394D01*
G01X2089087Y1882994D01*
G01X2090184Y1874194D01*
G01X2089087Y1865394D01*
G01X2089087Y1842994D01*
G01X2090184Y1834194D01*
G01X2089087Y1825394D01*
G01X2089087Y1807148D01*
G01X2086100Y1799164D01*
G01X2085086Y1790700D01*
G01X2085086Y1706560D01*
G01X2076722Y1698595D01*
G01X2071329Y1688381D01*
G01X2069467Y1676983D01*
G01X2069467Y1662195D01*
G01X2009576Y1602304D01*
G01X2007373Y1599008D01*
G01X2006600Y1595120D01*
G01X2006600Y1566752D01*
G01X1974262Y1534414D01*
G01X1822136Y1534414D01*
G37*
G54D10*
G01X2103761Y1259965D02*
G01X2011039Y1259965D01*
G03X2002161Y1259965I-4439J-66165D01*
G01X1961005Y1259965D01*
G03X1953821Y1256990I0J-10160D01*
G01X1951592Y1254760D01*
G01X1574800Y1254760D01*
G03X1567616Y1251784I0J-10160D01*
G01X1466016Y1150184D01*
G03X1463040Y1143000I7184J-7184D01*
G01X1463040Y715408D01*
G01X1326316Y578684D01*
G03X1323340Y571500I7184J-7184D01*
G01X1323340Y60960D01*
G01X1153160Y60960D01*
G01X1153160Y567292D01*
G01X1175584Y589716D01*
G03X1178560Y596900I-7184J7184D01*
G01X1178560Y706992D01*
G01X1185308Y713740D01*
G01X1308100Y713740D01*
G03X1315284Y716716I0J10160D01*
G01X1353384Y754816D01*
G03X1356360Y762000I-7184J7184D01*
G01X1356360Y1176892D01*
G01X1528208Y1348740D01*
G01X2685507Y1348740D01*
G01X2743055Y1291192D01*
G01X2743055Y1087668D01*
G01X2690769Y1087668D01*
G03X2666955Y1078603I0J-35814D01*
G03X2643200Y1087615I-23755J-26802D01*
G01X2589200Y1087615D01*
G03X2565400Y1078563I0J-35814D01*
G03X2541600Y1087615I-23800J-26762D01*
G01X2487600Y1087615D01*
G01X2486092Y1087584D01*
G01X2486092Y1249805D01*
G03X2475932Y1259965I-10160J0D01*
G01X2421387Y1259965D01*
G03X2404613Y1259965I-8387J-65782D01*
G01X2319787Y1259965D01*
G03X2311400Y1260498I-8387J-65782D01*
G03X2303013Y1259965I0J-66314D01*
G01X2218187Y1259965D01*
G03X2209800Y1260498I-8387J-65782D01*
G03X2201413Y1259965I0J-66314D01*
G01X2112639Y1259965D01*
G03X2108200Y1260114I-4439J-66165D01*
G03X2103761Y1259965I0J-66314D01*
G01X713070Y679753D02*
G03X73660Y647340I-306670J-273353D01*
G01X73660Y1131362D01*
G03X113497Y1122688I39837J87139D01*
G01X173497Y1122688D01*
G03X227068Y1297940I0J95814D01*
G01X474504Y1297940D01*
G03X518512Y1127688I44008J-79438D01*
G01X608512Y1127688D01*
G03X652519Y1297940I0J90814D01*
G01X735833Y1297940D01*
G01X738297Y1295476D01*
G03X763622Y1284986I25324J25324D01*
G01X1084996Y1284986D01*
G01X1094740Y1275242D01*
G01X1094740Y1066800D01*
G03X1097716Y1059616I10160J0D01*
G01X1107186Y1050146D01*
G01X1107186Y1043399D01*
G03X1117676Y1018075I35814J0D01*
G01X1134585Y1001165D01*
G01X1134585Y838200D01*
G03X1134675Y835660I35814J0D01*
G01X1076340Y835660D01*
G03X1088377Y862442I-23777J26782D01*
G01X1088377Y972442D01*
G03X1052563Y1008256I-35814J0D01*
G01X992563Y1008256D01*
G03X956749Y972442I0J-35814D01*
G01X956749Y961003D01*
G01X892042Y961003D01*
G03X861240Y948244I0J-43561D01*
G01X832793Y919797D01*
G03X820066Y890672I30802J-30802D01*
G03X800781Y858900I16529J-31772D01*
G01X800781Y802334D01*
G03X836595Y766520I35814J0D01*
G01X890595Y766520D01*
G03X918076Y779368I0J35814D01*
G03X916940Y774700I9024J-4668D01*
G01X916940Y584200D01*
G03X919916Y577016I10160J0D01*
G01X950481Y546451D01*
G03X957665Y543475I7184J7184D01*
G01X1079414Y543475D01*
G01X1079414Y48260D01*
G01X607656Y48260D01*
G03X713070Y679753I-201256J358140D01*
G01X970716Y832684D02*
G01X920175Y782144D01*
G03X926409Y802334I-29580J20190D01*
G01X926409Y858900D01*
G03X923125Y873881I-35814J0D01*
G01X956749Y873881D01*
G01X956749Y862442D01*
G03X971556Y833436I35814J0D01*
G01X970716Y832684D01*
G01X673503Y1866647D02*
G01X589658Y1866647D01*
G01X589658Y1917010D01*
G03X648863Y1917847I28845J53992D01*
G01X673503Y1917847D01*
G03X684321Y1920240I0J25654D01*
G01X698500Y1920240D01*
G03X705684Y1923216I0J10160D01*
G01X753454Y1970986D01*
G01X813249Y1970986D01*
G03X836580Y1962343I23331J27172D01*
G01X856788Y1962343D01*
G03X870412Y1962343I6812J60834D01*
G01X890580Y1962343D01*
G03X913912Y1970986I0J35814D01*
G01X1173898Y1970986D01*
G03X1184058Y1981146I0J10160D01*
G01X1184058Y2352040D01*
G01X4472940Y2352040D01*
G01X4472940Y1651000D01*
G03X4475916Y1643816I10160J0D01*
G01X4483972Y1635760D01*
G01X3822051Y1635760D01*
G03X3786276Y1669890I-35774J-1684D01*
G01X3766263Y1669890D01*
G03X3752289Y1669890I-6987J-60814D01*
G01X3732276Y1669890D01*
G03X3696786Y1638882I0J-35814D01*
G01X3162920Y2172748D01*
G03X3155736Y2175724I-7184J-7184D01*
G01X1409700Y2175724D01*
G03X1402516Y2172748I0J-10160D01*
G01X1313616Y2083848D01*
G03X1310640Y2076664I7184J-7184D01*
G01X1310640Y1905000D01*
G03X1320800Y1894840I10160J0D01*
G01X1396296Y1894840D01*
G03X1448504Y1894840I26104J60960D01*
G01X1507092Y1894840D01*
G01X1513840Y1888092D01*
G01X1513840Y1779689D01*
G03X1503185Y1754200I25159J-25489D01*
G01X1503185Y1700200D01*
G03X1513840Y1674711I35814J0D01*
G01X1513840Y1498600D01*
G03X1524000Y1488440I10160J0D01*
G01X1731433Y1488440D01*
G03X1757538Y1483086I26104J60960D01*
G03X1783642Y1488440I0J66314D01*
G01X1828096Y1488440D01*
G03X1880304Y1488440I26104J60960D01*
G01X1955096Y1488440D01*
G03X2047129Y1542264I26104J60960D01*
G01X2112465Y1607600D01*
G03X2115441Y1614784I-7184J7184D01*
G01X2115441Y1669308D01*
G01X2115967Y1669799D01*
G01X2128084Y1681916D01*
G03X2131060Y1689100I-7184J7184D01*
G01X2131060Y1762718D01*
G03X2133914Y1767180I-28660J21477D01*
G01X2174656Y1767180D01*
G01X2174656Y1688684D01*
G03X2177632Y1681500I10160J0D01*
G01X2225045Y1634087D01*
G01X2225045Y1514703D01*
G01X2215743Y1514703D01*
G03X2208559Y1511727I0J-10160D01*
G01X2103992Y1407160D01*
G01X1308100Y1407160D01*
G03X1300916Y1404184I0J-10160D01*
G01X1275516Y1378784D01*
G03X1272540Y1371600I7184J-7184D01*
G01X1272540Y848360D01*
G01X1180559Y848273D01*
G01X1180559Y848527D01*
G03X1183373Y862442I-33000J13915D01*
G01X1183373Y972442D01*
G03X1180559Y986357I-35814J0D01*
G01X1180559Y1016000D01*
G03X1177583Y1023184I-10160J0D01*
G01X1153160Y1047607D01*
G01X1153160Y1277631D01*
G03X1150184Y1284815I-10160J0D01*
G01X1107015Y1327984D01*
G03X1099831Y1330960I-7184J-7184D01*
G01X913764Y1330960D01*
G03X890496Y1339548I-23268J-27226D01*
G01X869612Y1339548D01*
G03X857588Y1339548I-6012J-60918D01*
G01X836496Y1339548D01*
G03X813228Y1330960I0J-35814D01*
G01X767830Y1330960D01*
G01X720006Y1378784D01*
G03X712822Y1381760I-7184J-7184D01*
G01X709813Y1381760D01*
G03X645242Y1384153I-34211J-50762D01*
G01X581660Y1384153D01*
G01X581660Y1430892D01*
G01X586096Y1435327D01*
G01X673503Y1435327D01*
G03X684147Y1437640I0J25654D01*
G01X735896Y1437640D01*
G03X763136Y1432296I26104J60960D01*
G01X792916Y1402516D01*
G03X800100Y1399540I7184J7184D01*
G01X1130300Y1399540D01*
G03X1137484Y1402516I0J10160D01*
G01X1162884Y1427916D01*
G03X1165860Y1435100I-7184J7184D01*
G01X1165860Y1892300D01*
G03X1155700Y1902460I-10160J0D01*
G01X790675Y1902460D01*
G03X783491Y1899484I0J-10160D01*
G01X758373Y1874366D01*
G03X752170Y1871438I981J-10113D01*
G01X749735Y1869004D01*
G03X718128Y1864360I-6448J-66000D01*
G01X684091Y1864360D01*
G03X673503Y1866647I-10589J-23367D01*
G01X1822136Y1534414D02*
G03X1818640Y1575170I-64599J14986D01*
G01X1818640Y1611232D01*
G01X1842437Y1635029D01*
G03X1859602Y1645598I-13637J41371D01*
G01X1872625Y1658620D01*
G01X1920240Y1658620D01*
G03X1930400Y1668780I0J10160D01*
G01X1930400Y1716395D01*
G01X1941184Y1727180D01*
G01X1989900Y1727180D01*
G03X2025714Y1762994I0J35814D01*
G01X2025714Y1785394D01*
G03X2024616Y1794194I-35814J0D01*
G03X2025714Y1802994I-34716J8800D01*
G01X2025714Y1825394D01*
G03X2024616Y1834194I-35814J0D01*
G03X2025714Y1842994I-34716J8800D01*
G01X2025714Y1865394D01*
G03X2024616Y1874194I-35814J0D01*
G03X2025714Y1882994I-34716J8800D01*
G01X2025714Y1905394D01*
G03X2024616Y1914194I-35814J0D01*
G03X2025714Y1922994I-34716J8800D01*
G01X2025714Y1945394D01*
G03X1989900Y1981208I-35814J0D01*
G01X1939399Y1981208D01*
G03X1930400Y1980059I0J-35814D01*
G01X1930400Y2040492D01*
G01X1942228Y2052320D01*
G01X2148840Y2052320D01*
G01X2148840Y1998980D01*
G01X2105233Y1998980D01*
G03X2095073Y1988820I0J-10160D01*
G01X2095073Y1965217D01*
G03X2089087Y1945394I29828J-19823D01*
G01X2089087Y1922994D01*
G03X2090184Y1914194I35814J0D01*
G03X2089087Y1905394I34716J-8800D01*
G01X2089087Y1882994D01*
G03X2090184Y1874194I35814J0D01*
G03X2089087Y1865394I34716J-8800D01*
G01X2089087Y1842994D01*
G03X2090184Y1834194I35814J0D01*
G03X2089087Y1825394I34716J-8800D01*
G01X2089087Y1807148D01*
G03X2085086Y1790700I31814J-16448D01*
G01X2085086Y1706560D01*
G03X2069467Y1676983I20195J-29577D01*
G01X2069467Y1662195D01*
G01X2009576Y1602304D01*
G03X2006600Y1595120I7184J-7184D01*
G01X2006600Y1566752D01*
G01X1974262Y1534414D01*
G01X1822136Y1534414D01*
G54D11*
G01X143497Y1218502D02*
G01X143497Y1132848D01*
G01X143497Y1218502D02*
G01X259151Y1218502D01*
G01X406400Y406400D02*
G01X807054Y406400D01*
G01X406400Y406400D02*
G01X406400Y807054D01*
G01X563512Y1218502D02*
G01X563512Y1137848D01*
G01X563512Y1218502D02*
G01X689166Y1218502D01*
G01X563512Y1218502D02*
G01X437858Y1218502D01*
G04 Copper End*

G04 Pad Start*
G54D12*
G01X863580Y1939134D03*
G01X863580Y2023157D03*
G01X863496Y1362757D03*
G01X863496Y1278734D03*
G54D13*
G01X2305202Y1587500D03*
G01X2165198Y1587500D03*
G54D12*
G01X3759276Y1693099D03*
G01X3759276Y1609076D03*
G01X2006600Y1024788D03*
G01X2006600Y1108812D03*
G54D13*
G01X1047710Y482632D03*
G01X1187715Y482632D03*
G01X1047598Y330200D03*
G01X1187602Y330200D03*
G01X1047598Y177800D03*
G01X1187602Y177800D03*
G01X1047651Y1117535D03*
G01X1187656Y1117535D03*
G54D14*
G01X924398Y1514006D03*
G01X853688Y1584716D03*
G54D15*
G01X924388Y1787916D03*
G01X853678Y1717206D03*
G54D16*
G01X618503Y1971002D03*
G01X618503Y1890992D03*
G54D17*
G01X618503Y1825993D03*
G01X618503Y1775981D03*
G01X618503Y1725994D03*
G01X618503Y1676006D03*
G01X618503Y1625994D03*
G01X618503Y1576007D03*
G01X618503Y1525994D03*
G01X618503Y1475981D03*
G54D16*
G01X618503Y1410983D03*
G01X618503Y1330998D03*
G54D18*
G01X563512Y2083499D03*
G01X563512Y1218502D03*
G54D20*
G01X143497Y2083499D03*
G01X143497Y1218502D03*
G54D21*
G01X4318000Y1397000D03*
G54D22*
G01X4318000Y1905000D03*
G54D23*
G01X1522446Y472147D03*
G01X1522446Y262089D03*
G54D24*
G01X3450971Y2514600D03*
G01X3661029Y2514600D03*
G01X2815971Y2514600D03*
G01X3026029Y2514600D03*
G01X2180971Y2514600D03*
G01X2391029Y2514600D03*
G01X1545971Y2514600D03*
G01X1756029Y2514600D03*
G01X910971Y2514600D03*
G01X1121029Y2514600D03*
G54D25*
G01X406400Y406400D03*
G01X4165600Y406400D03*
G01X4165600Y2895600D03*
G01X406400Y2895600D03*
G54D26*
G01X1752608Y976278D03*
G01X1802595Y1106276D03*
G01X1702595Y1106276D03*
G54D27*
G01X1752595Y297194D03*
G01X1752595Y210631D03*
G01X1752646Y744171D03*
G01X1752646Y830734D03*
G54D28*
G01X1480718Y1727200D03*
G01X1567282Y1727200D03*
G54D27*
G01X2717770Y1110134D03*
G01X2717770Y1023571D03*
G01X2514600Y1110082D03*
G01X2514600Y1023518D03*
G01X2616200Y1110082D03*
G01X2616200Y1023518D03*
G01X2819458Y1023497D03*
G01X2819458Y1110060D03*
G54D28*
G01X1567262Y2032060D03*
G01X1480699Y2032060D03*
G54D27*
G01X2108200Y1110082D03*
G01X2108200Y1023518D03*
G01X863595Y830617D03*
G01X863595Y744054D03*
G01X2413000Y1110082D03*
G01X2413000Y1023518D03*
G01X2209800Y1110082D03*
G01X2209800Y1023518D03*
G01X2311400Y1110082D03*
G01X2311400Y1023518D03*
G01X2921000Y1110082D03*
G01X2921000Y1023518D03*
G54D29*
G01X3302124Y280181D03*
G01X3429124Y280181D03*
G01X3556124Y280181D03*
G01X3302124Y1040683D03*
G01X3429124Y1040683D03*
G01X3556124Y1040683D03*
G54D30*
G01X1212555Y657422D03*
G01X1022563Y657422D03*
G01X1022563Y917442D03*
G01X1117559Y917442D03*
G01X1212555Y917442D03*
G54D31*
G01X1917783Y234377D03*
G01X2044783Y234377D03*
G01X2171783Y234377D03*
G01X2298783Y234377D03*
G01X2425783Y234377D03*
G01X2552783Y234377D03*
G01X2679783Y234377D03*
G01X2806783Y234377D03*
G01X1917783Y781493D03*
G01X2044783Y781493D03*
G01X2171783Y781493D03*
G01X2298783Y781493D03*
G01X2425783Y781493D03*
G01X2552783Y781493D03*
G01X2679783Y781493D03*
G01X2806783Y781493D03*
G54D32*
G01X2150151Y1774194D03*
G01X2150151Y1814194D03*
G01X2150151Y1854194D03*
G01X2150151Y1894194D03*
G01X2150151Y1934194D03*
G01X1964649Y1934194D03*
G01X1964649Y1894194D03*
G01X1964649Y1854194D03*
G01X1964649Y1814194D03*
G01X1964649Y1774194D03*
G54D33*
G01X2057400Y1854194D03*
G04 Pad End*

G04 Via Start*
G54D34*
G01X2108200Y1193800D03*
G01X2209800Y1194184D03*
G01X2311400Y1194184D03*
G01X2413000Y1194184D03*
G01X2552783Y914400D03*
G01X2679783Y914400D03*
G01X2806783Y914400D03*
G01X2870200Y1473200D03*
G01X2819458Y1193800D03*
G01X2006600Y1193800D03*
G01X2171783Y406400D03*
G01X2679783Y406400D03*
G01X2806783Y406400D03*
G01X1752646Y405090D03*
G01X2552783Y406400D03*
G01X1828508Y956936D03*
G01X1651000Y1016000D03*
G01X1662397Y925797D03*
G01X1660500Y610201D03*
G01X914400Y177800D03*
G01X914400Y330200D03*
G01X914400Y482632D03*
G01X863600Y621695D03*
G01X939800Y1117535D03*
G01X863600Y1193800D03*
G01X2997200Y914400D03*
G01X2540000Y1625600D03*
G01X1629875Y1574800D03*
G01X1757538Y1549400D03*
G01X3073400Y812800D03*
G01X3302124Y838200D03*
G01X3429124Y838200D03*
G01X3683124Y990600D03*
G01X3340095Y1447800D03*
G01X3581400Y1498600D03*
G01X787400Y2514600D03*
G01X1430099Y2514600D03*
G01X2064141Y2513203D03*
G01X2694428Y2513203D03*
G01X3331817Y2513203D03*
G01X1244600Y2514600D03*
G01X1850621Y2514587D03*
G01X2515653Y2514473D03*
G01X3146021Y2520559D03*
G01X3781974Y2514473D03*
G01X1626309Y2032060D03*
G01X1480699Y2108200D03*
G01X1422400Y1955800D03*
G01X2489200Y2028684D03*
G01X2495332Y1930400D03*
G01X2565400Y1981200D03*
G01X743288Y1803004D03*
G01X762000Y1498600D03*
G01X750626Y2103126D03*
G01X863600Y2108200D03*
G01X990600Y1752600D03*
G01X990600Y1556137D03*
G01X762000Y1244600D03*
G01X3759276Y1524000D03*
G01X1092200Y1694161D03*
G01X1092200Y1607761D03*
G01X2452842Y1533857D03*
G01X2057400Y1854194D03*
G01X2057400Y1961814D03*
G01X2057400Y1701800D03*
G01X1854200Y1549400D03*
G01X1981200Y1549400D03*
G01X1970412Y2027548D03*
G01X2058357Y2024380D03*
G01X2127098Y2024512D03*
G01X1955800Y1701800D03*
G04 Via End*

G04 Track Start*
G54D35*
G01X2044783Y781493D02*
G01X2044783Y876383D01*
G01X2108200Y939800D01*
G01X2108200Y1023518D01*
G01X2171783Y781493D02*
G01X2171783Y901783D01*
G01X2209800Y939800D01*
G01X2209800Y1023518D01*
G01X2298783Y927183D02*
G01X2311400Y939800D01*
G01X2298783Y781493D02*
G01X2298783Y927183D01*
G01X2311400Y939800D02*
G01X2311400Y1023518D01*
G01X2425783Y781493D02*
G01X2425783Y927017D01*
G01X2413000Y939800D01*
G01X2413000Y1023518D01*
G01X2108200Y1110082D02*
G01X2108200Y1193800D01*
G01X2209800Y1110465D02*
G01X2209800Y1194184D01*
G01X2311400Y1110465D02*
G01X2311400Y1194184D01*
G01X2413000Y1110465D02*
G01X2413000Y1194184D01*
G01X2552783Y781493D02*
G01X2552783Y914400D01*
G01X2679783Y781493D02*
G01X2679783Y914400D01*
G01X2806783Y781493D02*
G01X2806783Y914400D01*
G01X2616200Y1023518D02*
G01X2616200Y965200D01*
G01X2667000Y914400D01*
G01X2679783Y914400D01*
G01X2717770Y1023571D02*
G01X2721899Y1019441D01*
G01X2721899Y969299D01*
G01X2776798Y914400D01*
G01X2806783Y914400D01*
G01X2819458Y1023497D02*
G01X2819458Y927076D01*
G01X2806783Y914400D01*
G01X2514600Y1023518D02*
G01X2514600Y939800D01*
G01X2540000Y914400D01*
G01X2552783Y914400D01*
G01X2006600Y558800D02*
G01X1917783Y469983D01*
G01X1917783Y234377D01*
G01X2921000Y1023518D02*
G01X2921000Y635000D01*
G01X2844800Y558800D01*
G01X2044783Y234377D02*
G01X2044783Y556520D01*
G01X2047062Y558800D01*
G01X2006600Y558800D01*
G01X2298783Y234377D02*
G01X2298783Y556926D01*
G01X2296909Y558800D01*
G01X2047062Y558800D02*
G01X2296909Y558800D01*
G01X2425783Y234377D02*
G01X2425783Y556842D01*
G01X2423824Y558800D01*
G01X2296909Y558800D02*
G01X2423824Y558800D01*
G01X2844800Y558800D01*
G01X2921000Y1110082D02*
G01X2921000Y1422400D01*
G01X2870200Y1473200D01*
G54D11*
G01X2819458Y1110060D02*
G01X2819458Y1193800D01*
G01X2717770Y1110134D02*
G01X2717770Y1244600D01*
G01X1397000Y1153521D02*
G01X1397000Y736600D01*
G01X1317822Y657422D01*
G01X1212555Y657422D01*
G01X1187602Y177800D02*
G01X1187602Y330200D01*
G01X1187715Y330313D02*
G01X1187715Y482632D01*
G01X1187715Y552715D02*
G01X1187715Y482632D01*
G01X1212555Y657422D02*
G01X1212555Y577555D01*
G01X1187715Y552715D01*
G01X2006600Y1108812D02*
G01X2006600Y1193800D01*
G01X1917783Y781493D02*
G01X1917783Y876383D01*
G01X2006600Y965200D02*
G01X2006600Y1024788D01*
G01X1917783Y876383D02*
G01X2006600Y965200D01*
G01X2006600Y1024788D02*
G01X1934758Y1024788D01*
G01X1905000Y1054546D01*
G01X1752646Y744171D02*
G01X1404571Y744171D01*
G01X1397000Y736600D01*
G01X2171783Y234377D02*
G01X2171783Y406400D01*
G01X2679783Y234377D02*
G01X2679783Y406400D01*
G01X2806783Y234377D02*
G01X2806783Y406400D01*
G01X1752646Y297245D02*
G01X1752646Y405090D01*
G01X1752646Y744171D01*
G54D35*
G01X2552783Y234377D02*
G01X2552783Y406400D01*
G01X1828508Y956936D02*
G01X1828508Y1080363D01*
G01X1802595Y1106276D01*
G01X1752646Y830734D02*
G01X1828508Y906596D01*
G01X1828508Y956936D01*
G54D36*
G01X1702595Y1106276D02*
G01X1702595Y1067595D01*
G01X1651000Y1016000D01*
G54D35*
G01X1752608Y976278D02*
G01X1741529Y965200D01*
G01X1701800Y965200D01*
G01X1662397Y925797D01*
G01X1522446Y472147D02*
G01X1660500Y610201D01*
G01X1522446Y262089D02*
G01X1617511Y262089D01*
G01X1668969Y210631D01*
G01X1752595Y210631D01*
G54D11*
G01X1047598Y177800D02*
G01X914400Y177800D01*
G01X1047598Y330200D02*
G01X914400Y330200D01*
G01X1047710Y482632D02*
G01X914400Y482632D01*
G01X863600Y729605D02*
G01X863600Y621695D01*
G54D35*
G01X863595Y830617D02*
G01X863595Y888995D01*
G01X892042Y917442D02*
G01X1022563Y917442D01*
G01X863595Y888995D02*
G01X892042Y917442D01*
G54D11*
G01X1117559Y917442D02*
G01X1117559Y990641D01*
G01X1047651Y1060549D01*
G01X1047651Y1117535D01*
G01X1187656Y1047544D02*
G01X1187656Y1117535D01*
G01X1212555Y917442D02*
G01X1212555Y1022645D01*
G01X1187656Y1047544D01*
G01X1047651Y1117535D02*
G01X939800Y1117535D01*
G01X863600Y1278630D02*
G01X863600Y1193800D01*
G54D35*
G01X3302124Y280181D02*
G01X3148819Y280181D01*
G01X2997200Y431800D01*
G01X2997200Y914400D01*
G01X2895600Y1625600D02*
G01X2540000Y1625600D01*
G01X2997200Y914400D02*
G01X3048000Y965200D01*
G01X3048000Y1473200D01*
G01X2895600Y1625600D01*
G01X1756027Y1727200D02*
G01X1757512Y1728685D01*
G01X1629875Y1727200D02*
G01X1629875Y1574800D01*
G01X1567282Y1727200D02*
G01X1629875Y1727200D01*
G01X1756027Y1727200D01*
G01X3429124Y280181D02*
G01X3429124Y457076D01*
G01X3073400Y812800D01*
G01X3149600Y889000D02*
G01X3073400Y812800D01*
G01X3149600Y1574800D02*
G01X3149600Y889000D01*
G54D11*
G01X3302124Y1040683D02*
G01X3302124Y838200D01*
G01X3429124Y1040683D02*
G01X3429124Y838200D01*
G01X3556124Y1040683D02*
G01X3606207Y990600D01*
G01X3683124Y990600D01*
G54D35*
G01X3124315Y1828685D02*
G01X3454400Y1498600D01*
G01X3581400Y1498600D01*
G01X3784600Y1295400D02*
G01X3581400Y1498600D01*
G01X3556124Y280181D02*
G01X3556124Y584324D01*
G01X3784600Y812800D01*
G01X3784600Y1295400D01*
G54D11*
G01X910971Y2514600D02*
G01X787400Y2514600D01*
G01X1553670Y2514600D02*
G01X1430099Y2514600D01*
G01X2187712Y2513203D02*
G01X2064141Y2513203D01*
G01X2817999Y2513203D02*
G01X2694428Y2513203D01*
G01X3455388Y2513203D02*
G01X3331817Y2513203D01*
G54D35*
G01X1752450Y2514587D02*
G01X1850621Y2514587D01*
G01X3658403Y2514473D02*
G01X3781974Y2514473D01*
G01X3022450Y2520559D02*
G01X3146021Y2520559D01*
G01X2392082Y2514473D02*
G01X2515653Y2514473D01*
G01X1121029Y2514600D02*
G01X1244600Y2514600D01*
G01X1567262Y2032060D02*
G01X1626309Y2032060D01*
G54D11*
G01X1480699Y2032060D02*
G01X1480699Y2108200D01*
G54D35*
G01X1757512Y1928684D02*
G01X1551116Y1928684D01*
G01X1524000Y1955800D01*
G01X1422400Y1955800D01*
G54D11*
G01X618503Y1890992D02*
G01X722592Y1890992D01*
G01X770734Y1939134D02*
G01X863580Y1939134D01*
G01X722592Y1890992D02*
G01X770734Y1939134D01*
G01X770843Y1362757D02*
G01X863496Y1362757D01*
G01X618503Y1410983D02*
G01X722617Y1410983D01*
G01X770843Y1362757D01*
G54D35*
G01X618503Y1775981D02*
G01X716265Y1775981D01*
G01X743288Y1803004D01*
G01X618503Y1475981D02*
G01X625575Y1483054D01*
G01X721054Y1483054D01*
G01X736600Y1498600D01*
G01X762000Y1498600D01*
G54D11*
G01X618503Y1971002D02*
G01X750626Y2103126D01*
G01X863600Y2023177D02*
G01X863600Y2108200D01*
G01X924388Y1787916D02*
G01X959704Y1752600D01*
G01X990600Y1752600D01*
G01X924398Y1514006D02*
G01X966530Y1556137D01*
G01X990600Y1556137D01*
G01X618503Y1330998D02*
G01X675602Y1330998D01*
G01X762000Y1244600D01*
G01X1193800Y1123680D02*
G01X1187656Y1117535D01*
G01X863496Y1362757D02*
G01X1101043Y1362757D01*
G01X1193800Y1270000D02*
G01X1193800Y1123680D01*
G01X1101043Y1362757D02*
G01X1130300Y1333500D01*
G01X1193800Y1270000D01*
G01X1219200Y1397000D02*
G01X1155700Y1333500D01*
G01X1130300Y1333500D01*
G01X863580Y1939134D02*
G01X1219200Y1939134D01*
G01X1219200Y1818705D01*
G01X1480718Y1727200D02*
G01X1220270Y1727200D01*
G01X1219200Y1728270D01*
G01X1219200Y1818705D02*
G01X1219200Y1728270D01*
G01X1226459Y1447713D02*
G01X1219200Y1454972D01*
G01X1219200Y1728270D02*
G01X1219200Y1454972D01*
G01X1219200Y1397000D01*
G01X4318000Y1905000D02*
G01X4106099Y1693099D01*
G01X3759276Y1693099D01*
G01X3191776Y2260600D01*
G01X1371600Y2260600D01*
G01X1219200Y2108200D01*
G01X1219200Y1939134D01*
G01X3759276Y1609076D02*
G01X3759276Y1524000D01*
G54D37*
G01X1045952Y1607761D02*
G01X1092200Y1607761D01*
G01X1020786Y1632927D02*
G01X1045952Y1607761D01*
G01X1045952Y1694161D02*
G01X1092200Y1694161D01*
G01X1020786Y1668995D02*
G01X1045952Y1694161D01*
G01X853678Y1717206D02*
G01X901888Y1668995D01*
G01X1020786Y1668995D01*
G01X853688Y1584716D02*
G01X901899Y1632927D01*
G01X1020786Y1632927D01*
G01X844890Y1725994D02*
G01X853678Y1717206D01*
G01X618503Y1576007D02*
G01X844978Y1576007D01*
G01X853688Y1584716D01*
G01X618503Y1625994D02*
G01X618896Y1625600D01*
G01X711200Y1625600D01*
G01X737930Y1652330D01*
G01X737930Y1725994D01*
G01X618503Y1725994D02*
G01X737930Y1725994D01*
G01X844890Y1725994D01*
G01X618503Y1676006D02*
G01X556137Y1676006D01*
G01X540389Y1660258D01*
G01X540389Y1591755D01*
G01X556137Y1576007D01*
G01X618503Y1576007D01*
G54D11*
G01X1854200Y1818705D02*
G01X1219200Y1818705D01*
G54D10*
G01X1964649Y1854194D02*
G01X1889689Y1854194D01*
G01X1854200Y1818705D01*
G54D35*
G01X1964649Y1894194D02*
G01X1865006Y1894194D01*
G01X1828800Y1930400D01*
G01X1759228Y1930400D01*
G01X1757512Y1928684D01*
G01X1964649Y1934194D02*
G01X1903432Y1934194D01*
G01X1805566Y2032060D01*
G01X1795041Y1676400D02*
G01X1757538Y1638897D01*
G01X1964649Y1774194D02*
G01X1926594Y1774194D01*
G01X1828800Y1676400D01*
G01X1795041Y1676400D01*
G01X1757512Y1728685D02*
G01X1832609Y1728685D01*
G01X1918118Y1814194D01*
G01X1964649Y1814194D01*
G01X2150151Y1814194D02*
G01X2224406Y1814194D01*
G01X2311400Y1727200D01*
G01X2150151Y1854194D02*
G01X2235206Y1854194D01*
G01X2260600Y1828800D01*
G54D37*
G01X2442952Y2028684D02*
G01X2489200Y2028684D01*
G01X2449084Y1930400D02*
G01X2495332Y1930400D01*
G01X2411844Y1997576D02*
G01X2442952Y2028684D01*
G01X2417976Y1961508D02*
G01X2449084Y1930400D01*
G01X2302788Y1961508D02*
G01X2417976Y1961508D01*
G01X2287848Y1997576D02*
G01X2411844Y1997576D01*
G01X2235474Y1894194D02*
G01X2302788Y1961508D01*
G01X2235474Y1894194D02*
G01X2150151Y1894194D01*
G01X2224466Y1934194D02*
G01X2287848Y1997576D01*
G01X2224466Y1934194D02*
G01X2150151Y1934194D01*
G54D11*
G01X2026711Y1447713D02*
G01X2165198Y1586199D01*
G01X2165198Y1625600D01*
G01X2026711Y1447713D02*
G01X1226459Y1447713D01*
G54D10*
G01X2150151Y1774194D02*
G01X2150151Y1659849D01*
G54D11*
G01X2300442Y1598458D02*
G01X2365043Y1533857D01*
G01X2452842Y1533857D01*
G01X1556479Y1313000D02*
G01X1397000Y1153521D01*
G01X1905000Y1054546D02*
G01X1905000Y1280521D01*
G01X1905267Y1280521D01*
G01X1905267Y1307833D02*
G01X1900099Y1313001D01*
G01X1556479Y1313000D01*
G01X1905267Y1313000D02*
G01X1905267Y1307833D01*
G01X1905267Y1280521D01*
G01X2616889Y1307411D02*
G01X2611300Y1313000D01*
G01X2616200Y1110082D02*
G01X2616200Y1296089D01*
G01X2616889Y1296089D01*
G01X2717770Y1244600D02*
G01X2649369Y1313000D01*
G01X2611300Y1313000D01*
G01X2514600Y1110082D02*
G01X2514600Y1313000D01*
G01X2611300Y1313000D02*
G01X2514600Y1313000D01*
G01X1905267Y1313000D01*
G54D35*
G01X1757538Y1549400D02*
G01X1757538Y1638897D01*
G01X2997200Y1727200D02*
G01X2311400Y1727200D01*
G01X3124315Y1828685D02*
G01X2260600Y1828800D01*
G01X1626309Y2032060D02*
G01X1805566Y2032060D01*
G01X2997200Y1727200D02*
G01X3149600Y1574800D01*
G04 Track End*

M02*

