G04 Layer: TopPasteMaskLayer*
G04 EasyEDA Pro v3.2.148, 2026-09-09 13:06:15*
G04 Gerber Generator version 0.3*
G04 Scale: 100 percent, Rotated: No, Reflected: No*
G04 Dimensions in millimeters*
G04 Leading zeros omitted, absolute positions, 4 integers and 5 decimals*
G04 Generated by one-click*
G04 Object Configs: Pad,Via,Track,Text,Image,Dimension,BoardOutline,BoardCutout,CopperFilled,SolidRegion,FPCStiffener,Line,PlaneZone,ComponentProperty,ComponentSilkscreen,TearDrop*
G04 Layer Configs: 1,15,16,2,3,4,5,6,7,8,9,10,11,13,14,56*
G04 Copper Areas: 0*
%FSLAX45Y45*%
%MOMM*%
%ADD10R,0.54X0.5*%
%ADD11R,0.8X0.9*%
%ADD12R,1.1X0.55001*%
%ADD13R,1.1X0.3*%
%ADD14R,1.39954X1.0*%
%ADD15R,1.0052X1.39954*%
%ADD16R,1.0X1.39954*%
%ADD17R,0.4X0.51001*%
%ADD18O,0.55999X2.65501*%
%ADD19R,0.6X1.1*%
%ADD20O,0.60201X1.97099*%
%ADD21R,0.505X0.224*%
%ADD22R,0.9X1.4*%
G75*


G04 PolygonModel Start*
G36*
G01X818015Y1588624D02*
G01X849830Y1620440D01*
G01X856906Y1620443D01*
G01X890846Y1586503D01*
G01X892256Y1578013D01*
G01X860441Y1546198D01*
G01X851951Y1547608D01*
G01X818011Y1581548D01*
G01X818015Y1588624D01*
G37*
G36*
G01X885898Y1520741D02*
G01X917714Y1552556D01*
G01X926202Y1551148D01*
G01X960143Y1517206D01*
G01X960140Y1510130D01*
G01X928325Y1478314D01*
G01X921248Y1478311D01*
G01X887306Y1512253D01*
G01X885898Y1520741D01*
G37*
G36*
G01X849770Y1681532D02*
G01X817954Y1713348D01*
G01X817951Y1720424D01*
G01X851891Y1754364D01*
G01X860381Y1755774D01*
G01X892196Y1723959D01*
G01X890786Y1715469D01*
G01X856846Y1681529D01*
G01X849770Y1681532D01*
G37*
G36*
G01X917653Y1749416D02*
G01X885838Y1781231D01*
G01X887246Y1789719D01*
G01X921188Y1823661D01*
G01X928264Y1823658D01*
G01X960079Y1791842D01*
G01X960083Y1784766D01*
G01X926141Y1750824D01*
G01X917653Y1749416D01*
G37*
G36*
G01X1775595Y267413D02*
G01X1729595Y267413D01*
G01X1725595Y271413D01*
G01X1725595Y321477D01*
G01X1729595Y325477D01*
G01X1775595Y325477D01*
G01X1779595Y321477D01*
G01X1779595Y271413D01*
G01X1775595Y267413D01*
G37*
G36*
G01X1775595Y240413D02*
G01X1779595Y236412D01*
G01X1779595Y186349D01*
G01X1775595Y182348D01*
G01X1729595Y182348D01*
G01X1725595Y186349D01*
G01X1725595Y236412D01*
G01X1729595Y240413D01*
G01X1775595Y240413D01*
G37*
G36*
G01X1729646Y773952D02*
G01X1775645Y773952D01*
G01X1779646Y769952D01*
G01X1779646Y719888D01*
G01X1775645Y715888D01*
G01X1729646Y715888D01*
G01X1725646Y719888D01*
G01X1725646Y769952D01*
G01X1729646Y773952D01*
G37*
G36*
G01X1729646Y800952D02*
G01X1725646Y804953D01*
G01X1725646Y855016D01*
G01X1729646Y859017D01*
G01X1775645Y859017D01*
G01X1779646Y855016D01*
G01X1779646Y804953D01*
G01X1775645Y800952D01*
G01X1729646Y800952D01*
G37*
G36*
G01X1510500Y1750200D02*
G01X1510500Y1704200D01*
G01X1506499Y1700200D01*
G01X1456436Y1700200D01*
G01X1452436Y1704200D01*
G01X1452436Y1750200D01*
G01X1456436Y1754200D01*
G01X1506499Y1754200D01*
G01X1510500Y1750200D01*
G37*
G36*
G01X1537500Y1750200D02*
G01X1541501Y1754200D01*
G01X1591564Y1754200D01*
G01X1595565Y1750200D01*
G01X1595565Y1704200D01*
G01X1591564Y1700200D01*
G01X1541501Y1700200D01*
G01X1537500Y1704200D01*
G01X1537500Y1750200D01*
G37*
G36*
G01X2740769Y1080352D02*
G01X2694770Y1080352D01*
G01X2690769Y1084353D01*
G01X2690769Y1134416D01*
G01X2694770Y1138417D01*
G01X2740769Y1138417D01*
G01X2744770Y1134416D01*
G01X2744770Y1084353D01*
G01X2740769Y1080352D01*
G37*
G36*
G01X2740769Y1053352D02*
G01X2744770Y1049352D01*
G01X2744770Y999288D01*
G01X2740769Y995288D01*
G01X2694770Y995288D01*
G01X2690769Y999288D01*
G01X2690769Y1049352D01*
G01X2694770Y1053352D01*
G01X2740769Y1053352D01*
G37*
G36*
G01X2537600Y1080300D02*
G01X2491600Y1080300D01*
G01X2487600Y1084301D01*
G01X2487600Y1134364D01*
G01X2491600Y1138365D01*
G01X2537600Y1138365D01*
G01X2541600Y1134364D01*
G01X2541600Y1084301D01*
G01X2537600Y1080300D01*
G37*
G36*
G01X2537600Y1053300D02*
G01X2541600Y1049299D01*
G01X2541600Y999236D01*
G01X2537600Y995236D01*
G01X2491600Y995236D01*
G01X2487600Y999236D01*
G01X2487600Y1049299D01*
G01X2491600Y1053300D01*
G01X2537600Y1053300D01*
G37*
G36*
G01X2639200Y1080300D02*
G01X2593200Y1080300D01*
G01X2589200Y1084301D01*
G01X2589200Y1134364D01*
G01X2593200Y1138365D01*
G01X2639200Y1138365D01*
G01X2643200Y1134364D01*
G01X2643200Y1084301D01*
G01X2639200Y1080300D01*
G37*
G36*
G01X2639200Y1053300D02*
G01X2643200Y1049299D01*
G01X2643200Y999236D01*
G01X2639200Y995236D01*
G01X2593200Y995236D01*
G01X2589200Y999236D01*
G01X2589200Y1049299D01*
G01X2593200Y1053300D01*
G01X2639200Y1053300D01*
G37*
G36*
G01X2796459Y1053279D02*
G01X2842458Y1053279D01*
G01X2846459Y1049278D01*
G01X2846459Y999215D01*
G01X2842458Y995214D01*
G01X2796459Y995214D01*
G01X2792458Y999215D01*
G01X2792458Y1049278D01*
G01X2796459Y1053279D01*
G37*
G36*
G01X2796459Y1080279D02*
G01X2792458Y1084279D01*
G01X2792458Y1134343D01*
G01X2796459Y1138343D01*
G01X2842458Y1138343D01*
G01X2846459Y1134343D01*
G01X2846459Y1084279D01*
G01X2842458Y1080279D01*
G01X2796459Y1080279D01*
G37*
G36*
G01X1537480Y2009060D02*
G01X1537480Y2055060D01*
G01X1541481Y2059060D01*
G01X1591544Y2059060D01*
G01X1595545Y2055060D01*
G01X1595545Y2009060D01*
G01X1591544Y2005060D01*
G01X1541481Y2005060D01*
G01X1537480Y2009060D01*
G37*
G36*
G01X1510480Y2009060D02*
G01X1506480Y2005060D01*
G01X1456416Y2005060D01*
G01X1452416Y2009060D01*
G01X1452416Y2055060D01*
G01X1456416Y2059060D01*
G01X1506480Y2059060D01*
G01X1510480Y2055060D01*
G01X1510480Y2009060D01*
G37*
G36*
G01X2131200Y1080300D02*
G01X2085200Y1080300D01*
G01X2081200Y1084301D01*
G01X2081200Y1134364D01*
G01X2085200Y1138365D01*
G01X2131200Y1138365D01*
G01X2135200Y1134364D01*
G01X2135200Y1084301D01*
G01X2131200Y1080300D01*
G37*
G36*
G01X2131200Y1053300D02*
G01X2135200Y1049299D01*
G01X2135200Y999236D01*
G01X2131200Y995236D01*
G01X2085200Y995236D01*
G01X2081200Y999236D01*
G01X2081200Y1049299D01*
G01X2085200Y1053300D01*
G01X2131200Y1053300D01*
G37*
G36*
G01X886595Y800836D02*
G01X840595Y800836D01*
G01X836595Y804836D01*
G01X836595Y854899D01*
G01X840595Y858900D01*
G01X886595Y858900D01*
G01X890595Y854899D01*
G01X890595Y804836D01*
G01X886595Y800836D01*
G37*
G36*
G01X886595Y773835D02*
G01X890595Y769835D01*
G01X890595Y719771D01*
G01X886595Y715771D01*
G01X840595Y715771D01*
G01X836595Y719771D01*
G01X836595Y769835D01*
G01X840595Y773835D01*
G01X886595Y773835D01*
G37*
G36*
G01X2436000Y1080300D02*
G01X2390000Y1080300D01*
G01X2386000Y1084301D01*
G01X2386000Y1134364D01*
G01X2390000Y1138365D01*
G01X2436000Y1138365D01*
G01X2440000Y1134364D01*
G01X2440000Y1084301D01*
G01X2436000Y1080300D01*
G37*
G36*
G01X2436000Y1053300D02*
G01X2440000Y1049299D01*
G01X2440000Y999236D01*
G01X2436000Y995236D01*
G01X2390000Y995236D01*
G01X2386000Y999236D01*
G01X2386000Y1049299D01*
G01X2390000Y1053300D01*
G01X2436000Y1053300D01*
G37*
G36*
G01X2232800Y1080300D02*
G01X2186800Y1080300D01*
G01X2182800Y1084301D01*
G01X2182800Y1134364D01*
G01X2186800Y1138365D01*
G01X2232800Y1138365D01*
G01X2236800Y1134364D01*
G01X2236800Y1084301D01*
G01X2232800Y1080300D01*
G37*
G36*
G01X2232800Y1053300D02*
G01X2236800Y1049299D01*
G01X2236800Y999236D01*
G01X2232800Y995236D01*
G01X2186800Y995236D01*
G01X2182800Y999236D01*
G01X2182800Y1049299D01*
G01X2186800Y1053300D01*
G01X2232800Y1053300D01*
G37*
G36*
G01X2334400Y1080300D02*
G01X2288400Y1080300D01*
G01X2284400Y1084301D01*
G01X2284400Y1134364D01*
G01X2288400Y1138365D01*
G01X2334400Y1138365D01*
G01X2338400Y1134364D01*
G01X2338400Y1084301D01*
G01X2334400Y1080300D01*
G37*
G36*
G01X2334400Y1053300D02*
G01X2338400Y1049299D01*
G01X2338400Y999236D01*
G01X2334400Y995236D01*
G01X2288400Y995236D01*
G01X2284400Y999236D01*
G01X2284400Y1049299D01*
G01X2288400Y1053300D01*
G01X2334400Y1053300D01*
G37*
G36*
G01X2944000Y1080300D02*
G01X2898000Y1080300D01*
G01X2894000Y1084301D01*
G01X2894000Y1134364D01*
G01X2898000Y1138365D01*
G01X2944000Y1138365D01*
G01X2948000Y1134364D01*
G01X2948000Y1084301D01*
G01X2944000Y1080300D01*
G37*
G36*
G01X2944000Y1053300D02*
G01X2948000Y1049299D01*
G01X2948000Y999236D01*
G01X2944000Y995236D01*
G01X2898000Y995236D01*
G01X2894000Y999236D01*
G01X2894000Y1049299D01*
G01X2898000Y1053300D01*
G01X2944000Y1053300D01*
G37*

G04 Pad Start*
G54D10*
G01X863580Y1939134D03*
G01X863580Y2023157D03*
G01X863496Y1362757D03*
G01X863496Y1278734D03*
G54D11*
G01X2305202Y1587500D03*
G01X2165198Y1587500D03*
G54D10*
G01X3759276Y1693099D03*
G01X3759276Y1609076D03*
G01X2006600Y1024788D03*
G01X2006600Y1108812D03*
G54D11*
G01X1047710Y482632D03*
G01X1187715Y482632D03*
G01X1047598Y330200D03*
G01X1187602Y330200D03*
G01X1047598Y177800D03*
G01X1187602Y177800D03*
G01X1047651Y1117535D03*
G01X1187656Y1117535D03*
G54D12*
G01X618503Y1971002D03*
G01X618503Y1890992D03*
G54D13*
G01X618503Y1825993D03*
G01X618503Y1775981D03*
G01X618503Y1725994D03*
G01X618503Y1676006D03*
G01X618503Y1625994D03*
G01X618503Y1576007D03*
G01X618503Y1525994D03*
G01X618503Y1475981D03*
G54D12*
G01X618503Y1410983D03*
G01X618503Y1330998D03*
G54D14*
G01X1522446Y472147D03*
G01X1522446Y262089D03*
G54D16*
G01X3450971Y2514600D03*
G01X3661029Y2514600D03*
G01X2815971Y2514600D03*
G01X3026029Y2514600D03*
G01X2180971Y2514600D03*
G01X2391029Y2514600D03*
G01X1545971Y2514600D03*
G01X1756029Y2514600D03*
G01X910971Y2514600D03*
G01X1121029Y2514600D03*
G54D17*
G01X1752608Y976278D03*
G01X1802595Y1106276D03*
G01X1702595Y1106276D03*
G54D18*
G01X3302124Y280181D03*
G01X3429124Y280181D03*
G01X3556124Y280181D03*
G01X3302124Y1040683D03*
G01X3429124Y1040683D03*
G01X3556124Y1040683D03*
G54D19*
G01X1212555Y657422D03*
G01X1022563Y657422D03*
G01X1022563Y917442D03*
G01X1117559Y917442D03*
G01X1212555Y917442D03*
G54D20*
G01X1917783Y234377D03*
G01X2044783Y234377D03*
G01X2171783Y234377D03*
G01X2298783Y234377D03*
G01X2425783Y234377D03*
G01X2552783Y234377D03*
G01X2679783Y234377D03*
G01X2806783Y234377D03*
G01X1917783Y781493D03*
G01X2044783Y781493D03*
G01X2171783Y781493D03*
G01X2298783Y781493D03*
G01X2425783Y781493D03*
G01X2552783Y781493D03*
G01X2679783Y781493D03*
G01X2806783Y781493D03*
G54D21*
G01X2150151Y1774194D03*
G01X2150151Y1814194D03*
G01X2150151Y1854194D03*
G01X2150151Y1894194D03*
G01X2150151Y1934194D03*
G01X1964649Y1934194D03*
G01X1964649Y1894194D03*
G01X1964649Y1854194D03*
G01X1964649Y1814194D03*
G01X1964649Y1774194D03*
G54D22*
G01X2057400Y1854194D03*
G04 Pad End*

M02*

