G04 Layer: TopSilkscreenLayer*
G04 EasyEDA Pro v3.2.148, 2026-09-09 13:06:15*
G04 Gerber Generator version 0.3*
G04 Scale: 100 percent, Rotated: No, Reflected: No*
G04 Dimensions in millimeters*
G04 Leading zeros omitted, absolute positions, 4 integers and 5 decimals*
G04 Generated by one-click*
G04 Object Configs: Pad,Via,Track,Text,Image,Dimension,BoardOutline,BoardCutout,CopperFilled,SolidRegion,FPCStiffener,Line,PlaneZone,ComponentProperty,ComponentSilkscreen,TearDrop*
G04 Layer Configs: 1,15,16,2,3,4,5,6,7,8,9,10,11,13,14,56*
G04 Copper Areas: 0*
%FSLAX45Y45*%
%MOMM*%
%ADD10C,0.2032*%
%ADD11C,0.381*%
%ADD12C,0.1524*%
%ADD13C,0.254*%
%ADD14C,0.15199*%
%ADD15C,0.051*%
%ADD16C,0.1948*%
%ADD17C,0.18999*%
%ADD18C,0.1*%
%ADD19C,0.3*%
%ADD20C,0.15001*%
G75*


G04 Text Start*
G54D10*
G01X966343Y2830830D02*
G01X893445Y2830830D01*
G01X886079Y2765044D01*
G01X893445Y2772410D01*
G01X915289Y2779776D01*
G01X937133Y2779776D01*
G01X958977Y2772410D01*
G01X973709Y2757678D01*
G01X981075Y2735834D01*
G01X981075Y2721356D01*
G01X973709Y2699258D01*
G01X958977Y2684780D01*
G01X937133Y2677414D01*
G01X915289Y2677414D01*
G01X893445Y2684780D01*
G01X886079Y2692146D01*
G01X878713Y2706624D01*
G01X1036447Y2830830D02*
G01X1094867Y2677414D01*
G01X1153287Y2830830D02*
G01X1094867Y2677414D01*
G01X1612392Y2779789D02*
G01X1605026Y2757691D01*
G01X1590548Y2743213D01*
G01X1568450Y2735847D01*
G01X1561338Y2735847D01*
G01X1539240Y2743213D01*
G01X1524762Y2757691D01*
G01X1517396Y2779789D01*
G01X1517396Y2786901D01*
G01X1524762Y2808999D01*
G01X1539240Y2823477D01*
G01X1561338Y2830843D01*
G01X1568450Y2830843D01*
G01X1590548Y2823477D01*
G01X1605026Y2808999D01*
G01X1612392Y2779789D01*
G01X1612392Y2743213D01*
G01X1605026Y2706637D01*
G01X1590548Y2684793D01*
G01X1568450Y2677427D01*
G01X1553972Y2677427D01*
G01X1532128Y2684793D01*
G01X1524762Y2699271D01*
G01X1667764Y2830843D02*
G01X1726184Y2677427D01*
G01X1784604Y2830843D02*
G01X1726184Y2677427D01*
G01X2102739Y2800236D02*
G01X2117471Y2807602D01*
G01X2139315Y2829446D01*
G01X2139315Y2676030D01*
G01X2202053Y2792870D02*
G01X2202053Y2800236D01*
G01X2209419Y2814714D01*
G01X2216531Y2822080D01*
G01X2231263Y2829446D01*
G01X2260473Y2829446D01*
G01X2274951Y2822080D01*
G01X2282317Y2814714D01*
G01X2289683Y2800236D01*
G01X2289683Y2785504D01*
G01X2282317Y2771026D01*
G01X2267839Y2749182D01*
G01X2194687Y2676030D01*
G01X2297049Y2676030D01*
G01X2352421Y2829446D02*
G01X2410841Y2676030D01*
G01X2469261Y2829446D02*
G01X2410841Y2676030D01*
G01X2712212Y2792870D02*
G01X2712212Y2800236D01*
G01X2719578Y2814714D01*
G01X2726690Y2822080D01*
G01X2741422Y2829446D01*
G01X2770632Y2829446D01*
G01X2785110Y2822080D01*
G01X2792476Y2814714D01*
G01X2799842Y2800236D01*
G01X2799842Y2785504D01*
G01X2792476Y2771026D01*
G01X2777998Y2749182D01*
G01X2704846Y2676030D01*
G01X2807208Y2676030D01*
G01X2906522Y2829446D02*
G01X2884424Y2822080D01*
G01X2869946Y2800236D01*
G01X2862580Y2763660D01*
G01X2862580Y2741816D01*
G01X2869946Y2705240D01*
G01X2884424Y2683396D01*
G01X2906522Y2676030D01*
G01X2921000Y2676030D01*
G01X2942844Y2683396D01*
G01X2957576Y2705240D01*
G01X2964942Y2741816D01*
G01X2964942Y2763660D01*
G01X2957576Y2800236D01*
G01X2942844Y2822080D01*
G01X2921000Y2829446D01*
G01X2906522Y2829446D01*
G01X3020314Y2829446D02*
G01X3078734Y2676030D01*
G01X3137154Y2829446D02*
G01X3078734Y2676030D01*
G01X3347212Y2792870D02*
G01X3347212Y2800236D01*
G01X3354578Y2814714D01*
G01X3361690Y2822080D01*
G01X3376422Y2829446D01*
G01X3405632Y2829446D01*
G01X3420110Y2822080D01*
G01X3427476Y2814714D01*
G01X3434842Y2800236D01*
G01X3434842Y2785504D01*
G01X3427476Y2771026D01*
G01X3412998Y2749182D01*
G01X3339846Y2676030D01*
G01X3442208Y2676030D01*
G01X3534156Y2829446D02*
G01X3512312Y2822080D01*
G01X3504946Y2807602D01*
G01X3504946Y2792870D01*
G01X3512312Y2778392D01*
G01X3526790Y2771026D01*
G01X3556000Y2763660D01*
G01X3577844Y2756294D01*
G01X3592576Y2741816D01*
G01X3599942Y2727084D01*
G01X3599942Y2705240D01*
G01X3592576Y2690762D01*
G01X3585210Y2683396D01*
G01X3563366Y2676030D01*
G01X3534156Y2676030D01*
G01X3512312Y2683396D01*
G01X3504946Y2690762D01*
G01X3497580Y2705240D01*
G01X3497580Y2727084D01*
G01X3504946Y2741816D01*
G01X3519424Y2756294D01*
G01X3541522Y2763660D01*
G01X3570732Y2771026D01*
G01X3585210Y2778392D01*
G01X3592576Y2792870D01*
G01X3592576Y2807602D01*
G01X3585210Y2822080D01*
G01X3563366Y2829446D01*
G01X3534156Y2829446D01*
G01X3655314Y2829446D02*
G01X3713734Y2676030D01*
G01X3772154Y2829446D02*
G01X3713734Y2676030D01*
G54D11*
G01X990346Y3148076D02*
G01X973582Y3139694D01*
G01X957072Y3122930D01*
G01X948690Y3106420D01*
G01X940308Y3081274D01*
G01X940308Y3039618D01*
G01X948690Y3014726D01*
G01X957072Y2997962D01*
G01X973582Y2981198D01*
G01X990346Y2973070D01*
G01X1023620Y2973070D01*
G01X1040384Y2981198D01*
G01X1056894Y2997962D01*
G01X1065276Y3014726D01*
G01X1073658Y3039618D01*
G01X1073658Y3081274D01*
G01X1065276Y3106420D01*
G01X1056894Y3122930D01*
G01X1040384Y3139694D01*
G01X1023620Y3148076D01*
G01X990346Y3148076D01*
G01X1151890Y3148076D02*
G01X1151890Y3023108D01*
G01X1160018Y2997962D01*
G01X1176782Y2981198D01*
G01X1201674Y2973070D01*
G01X1218438Y2973070D01*
G01X1243330Y2981198D01*
G01X1260094Y2997962D01*
G01X1268476Y3023108D01*
G01X1268476Y3148076D01*
G01X1404874Y3148076D02*
G01X1404874Y2973070D01*
G01X1346708Y3148076D02*
G01X1463294Y3148076D01*
G01X1541526Y3148076D02*
G01X1541526Y2973070D01*
G01X1541526Y3148076D02*
G01X1616456Y3148076D01*
G01X1641348Y3139694D01*
G01X1649730Y3131312D01*
G01X1658112Y3114548D01*
G01X1658112Y3089656D01*
G01X1649730Y3072892D01*
G01X1641348Y3064764D01*
G01X1616456Y3056382D01*
G01X1541526Y3056382D01*
G01X1736344Y3148076D02*
G01X1736344Y3023108D01*
G01X1744472Y2997962D01*
G01X1761236Y2981198D01*
G01X1786128Y2973070D01*
G01X1802892Y2973070D01*
G01X1827784Y2981198D01*
G01X1844548Y2997962D01*
G01X1852930Y3023108D01*
G01X1852930Y3148076D01*
G01X1989328Y3148076D02*
G01X1989328Y2973070D01*
G01X1931162Y3148076D02*
G01X2047748Y3148076D01*
G01X2312670Y3148076D02*
G01X2379218Y2973070D01*
G01X2446020Y3148076D02*
G01X2379218Y2973070D01*
G01X2574036Y3148076D02*
G01X2557526Y3139694D01*
G01X2540762Y3122930D01*
G01X2532380Y3106420D01*
G01X2524252Y3081274D01*
G01X2524252Y3039618D01*
G01X2532380Y3014726D01*
G01X2540762Y2997962D01*
G01X2557526Y2981198D01*
G01X2574036Y2973070D01*
G01X2607564Y2973070D01*
G01X2624074Y2981198D01*
G01X2640838Y2997962D01*
G01X2649220Y3014726D01*
G01X2657602Y3039618D01*
G01X2657602Y3081274D01*
G01X2649220Y3106420D01*
G01X2640838Y3122930D01*
G01X2624074Y3139694D01*
G01X2607564Y3148076D01*
G01X2574036Y3148076D01*
G01X2735834Y3148076D02*
G01X2735834Y2973070D01*
G01X2735834Y2973070D02*
G01X2835656Y2973070D01*
G01X2972054Y3148076D02*
G01X2972054Y2973070D01*
G01X2913888Y3148076D02*
G01X3030474Y3148076D01*
G01X3175254Y3148076D02*
G01X3108706Y2973070D01*
G01X3175254Y3148076D02*
G01X3242056Y2973070D01*
G01X3133598Y3031236D02*
G01X3216910Y3031236D01*
G01X3445256Y3106420D02*
G01X3436874Y3122930D01*
G01X3420110Y3139694D01*
G01X3403600Y3148076D01*
G01X3370072Y3148076D01*
G01X3353562Y3139694D01*
G01X3336798Y3122930D01*
G01X3328416Y3106420D01*
G01X3320288Y3081274D01*
G01X3320288Y3039618D01*
G01X3328416Y3014726D01*
G01X3336798Y2997962D01*
G01X3353562Y2981198D01*
G01X3370072Y2973070D01*
G01X3403600Y2973070D01*
G01X3420110Y2981198D01*
G01X3436874Y2997962D01*
G01X3445256Y3014726D01*
G01X3445256Y3039618D01*
G01X3403600Y3039618D02*
G01X3445256Y3039618D01*
G01X3523488Y3148076D02*
G01X3523488Y2973070D01*
G01X3523488Y3148076D02*
G01X3631692Y3148076D01*
G01X3523488Y3064764D02*
G01X3590036Y3064764D01*
G01X3523488Y2973070D02*
G01X3631692Y2973070D01*
G54D12*
G01X83820Y1035558D02*
G01X83820Y912368D01*
G01X127254Y1035558D02*
G01X127254Y912368D01*
G01X127254Y1035558D02*
G01X209550Y912368D01*
G01X209550Y1035558D02*
G01X209550Y912368D01*
G01X252984Y1035558D02*
G01X252984Y912368D01*
G01X252984Y1035558D02*
G01X305816Y1035558D01*
G01X323596Y1029716D01*
G01X329438Y1023874D01*
G01X335280Y1012190D01*
G01X335280Y994664D01*
G01X329438Y982726D01*
G01X323596Y976884D01*
G01X305816Y971042D01*
G01X252984Y971042D01*
G01X378714Y1035558D02*
G01X378714Y947674D01*
G01X384556Y929894D01*
G01X396240Y918210D01*
G01X414020Y912368D01*
G01X425704Y912368D01*
G01X443230Y918210D01*
G01X455168Y929894D01*
G01X461010Y947674D01*
G01X461010Y1035558D01*
G01X545592Y1035558D02*
G01X545592Y912368D01*
G01X504444Y1035558D02*
G01X586740Y1035558D01*
G01X3826256Y1035558D02*
G01X3814572Y1029716D01*
G01X3802634Y1018032D01*
G01X3796792Y1006348D01*
G01X3790950Y988568D01*
G01X3790950Y959358D01*
G01X3796792Y941578D01*
G01X3802634Y929894D01*
G01X3814572Y918210D01*
G01X3826256Y912368D01*
G01X3849624Y912368D01*
G01X3861562Y918210D01*
G01X3873246Y929894D01*
G01X3879088Y941578D01*
G01X3884930Y959358D01*
G01X3884930Y988568D01*
G01X3879088Y1006348D01*
G01X3873246Y1018032D01*
G01X3861562Y1029716D01*
G01X3849624Y1035558D01*
G01X3826256Y1035558D01*
G01X3928364Y1035558D02*
G01X3928364Y947674D01*
G01X3934206Y929894D01*
G01X3945890Y918210D01*
G01X3963670Y912368D01*
G01X3975354Y912368D01*
G01X3992880Y918210D01*
G01X4004818Y929894D01*
G01X4010660Y947674D01*
G01X4010660Y1035558D01*
G01X4095242Y1035558D02*
G01X4095242Y912368D01*
G01X4054094Y1035558D02*
G01X4136390Y1035558D01*
G01X4179824Y1035558D02*
G01X4179824Y912368D01*
G01X4179824Y1035558D02*
G01X4232656Y1035558D01*
G01X4250436Y1029716D01*
G01X4256278Y1023874D01*
G01X4262120Y1012190D01*
G01X4262120Y994664D01*
G01X4256278Y982726D01*
G01X4250436Y976884D01*
G01X4232656Y971042D01*
G01X4179824Y971042D01*
G01X4305554Y1035558D02*
G01X4305554Y947674D01*
G01X4311396Y929894D01*
G01X4323080Y918210D01*
G01X4340860Y912368D01*
G01X4352544Y912368D01*
G01X4370070Y918210D01*
G01X4382008Y929894D01*
G01X4387850Y947674D01*
G01X4387850Y1035558D01*
G01X4472432Y1035558D02*
G01X4472432Y912368D01*
G01X4431284Y1035558D02*
G01X4513580Y1035558D01*
G01X3009392Y219837D02*
G01X3000756Y211455D01*
G01X2996692Y198501D01*
G01X2996692Y181229D01*
G01X3000756Y168529D01*
G01X3009392Y159893D01*
G01X3018028Y159893D01*
G01X3026664Y164211D01*
G01X3030982Y168529D01*
G01X3035046Y177165D01*
G01X3043682Y202819D01*
G01X3048000Y211455D01*
G01X3052318Y215519D01*
G01X3060954Y219837D01*
G01X3073654Y219837D01*
G01X3082290Y211455D01*
G01X3086608Y198501D01*
G01X3086608Y181229D01*
G01X3082290Y168529D01*
G01X3073654Y159893D01*
G01X2996692Y255651D02*
G01X3086608Y276987D01*
G01X2996692Y298577D02*
G01X3086608Y276987D01*
G01X2996692Y298577D02*
G01X3086608Y319913D01*
G01X2996692Y341503D02*
G01X3086608Y319913D01*
G01X2996692Y377317D02*
G01X3086608Y377317D01*
G01X2996692Y443103D02*
G01X3086608Y443103D01*
G01X2996692Y413131D02*
G01X2996692Y473075D01*
G01X3018028Y573151D02*
G01X3009392Y568833D01*
G01X3000756Y560451D01*
G01X2996692Y551815D01*
G01X2996692Y534543D01*
G01X3000756Y526161D01*
G01X3009392Y517525D01*
G01X3018028Y513207D01*
G01X3030982Y508889D01*
G01X3052318Y508889D01*
G01X3065272Y513207D01*
G01X3073654Y517525D01*
G01X3082290Y526161D01*
G01X3086608Y534543D01*
G01X3086608Y551815D01*
G01X3082290Y560451D01*
G01X3073654Y568833D01*
G01X3065272Y573151D01*
G01X2996692Y608965D02*
G01X3086608Y608965D01*
G01X2996692Y668909D02*
G01X3086608Y668909D01*
G01X3039364Y608965D02*
G01X3039364Y668909D01*
G01X2996692Y704723D02*
G01X3086608Y704723D01*
G01X2996692Y704723D02*
G01X2996692Y760349D01*
G01X3039364Y704723D02*
G01X3039364Y739013D01*
G01X3086608Y704723D02*
G01X3086608Y760349D01*
G01X3009392Y856107D02*
G01X3000756Y847725D01*
G01X2996692Y834771D01*
G01X2996692Y817499D01*
G01X3000756Y804799D01*
G01X3009392Y796163D01*
G01X3018028Y796163D01*
G01X3026664Y800481D01*
G01X3030982Y804799D01*
G01X3035046Y813435D01*
G01X3043682Y839089D01*
G01X3048000Y847725D01*
G01X3052318Y851789D01*
G01X3060954Y856107D01*
G01X3073654Y856107D01*
G01X3082290Y847725D01*
G01X3086608Y834771D01*
G01X3086608Y817499D01*
G01X3082290Y804799D01*
G01X3073654Y796163D01*
G01X3196082Y229108D02*
G01X3183382Y225044D01*
G01X3174746Y212090D01*
G01X3170428Y190754D01*
G01X3170428Y177800D01*
G01X3174746Y156464D01*
G01X3183382Y143510D01*
G01X3196082Y139192D01*
G01X3204718Y139192D01*
G01X3217672Y143510D01*
G01X3226054Y156464D01*
G01X3230372Y177800D01*
G01X3230372Y190754D01*
G01X3226054Y212090D01*
G01X3217672Y225044D01*
G01X3204718Y229108D01*
G01X3196082Y229108D01*
G01X3189732Y1151890D02*
G01X3198368Y1156208D01*
G01X3211068Y1168908D01*
G01X3211068Y1078992D01*
G01X2617597Y2299208D02*
G01X2609215Y2307844D01*
G01X2596261Y2311908D01*
G01X2578989Y2311908D01*
G01X2566289Y2307844D01*
G01X2557653Y2299208D01*
G01X2557653Y2290572D01*
G01X2561971Y2281936D01*
G01X2566289Y2277618D01*
G01X2574925Y2273554D01*
G01X2600579Y2264918D01*
G01X2609215Y2260600D01*
G01X2613279Y2256282D01*
G01X2617597Y2247646D01*
G01X2617597Y2234946D01*
G01X2609215Y2226310D01*
G01X2596261Y2221992D01*
G01X2578989Y2221992D01*
G01X2566289Y2226310D01*
G01X2557653Y2234946D01*
G01X2653411Y2294890D02*
G01X2662047Y2299208D01*
G01X2674747Y2311908D01*
G01X2674747Y2221992D01*
G01X2852299Y2299115D02*
G01X2843917Y2307751D01*
G01X2830963Y2311815D01*
G01X2813691Y2311815D01*
G01X2800991Y2307751D01*
G01X2792355Y2299115D01*
G01X2792355Y2290479D01*
G01X2796673Y2281843D01*
G01X2800991Y2277525D01*
G01X2809627Y2273461D01*
G01X2835281Y2264825D01*
G01X2843917Y2260507D01*
G01X2847981Y2256189D01*
G01X2852299Y2247553D01*
G01X2852299Y2234853D01*
G01X2843917Y2226217D01*
G01X2830963Y2221899D01*
G01X2813691Y2221899D01*
G01X2800991Y2226217D01*
G01X2792355Y2234853D01*
G01X2892431Y2290479D02*
G01X2892431Y2294797D01*
G01X2896749Y2303433D01*
G01X2901067Y2307751D01*
G01X2909449Y2311815D01*
G01X2926721Y2311815D01*
G01X2935357Y2307751D01*
G01X2939675Y2303433D01*
G01X2943739Y2294797D01*
G01X2943739Y2286161D01*
G01X2939675Y2277525D01*
G01X2931039Y2264825D01*
G01X2888113Y2221899D01*
G01X2948057Y2221899D01*
G01X3106293Y2299208D02*
G01X3097911Y2307844D01*
G01X3084957Y2311908D01*
G01X3067685Y2311908D01*
G01X3054985Y2307844D01*
G01X3046349Y2299208D01*
G01X3046349Y2290572D01*
G01X3050667Y2281936D01*
G01X3054985Y2277618D01*
G01X3063621Y2273554D01*
G01X3089275Y2264918D01*
G01X3097911Y2260600D01*
G01X3101975Y2256282D01*
G01X3106293Y2247646D01*
G01X3106293Y2234946D01*
G01X3097911Y2226310D01*
G01X3084957Y2221992D01*
G01X3067685Y2221992D01*
G01X3054985Y2226310D01*
G01X3046349Y2234946D01*
G01X3150743Y2311908D02*
G01X3197733Y2311908D01*
G01X3172079Y2277618D01*
G01X3185033Y2277618D01*
G01X3193669Y2273554D01*
G01X3197733Y2269236D01*
G01X3202051Y2256282D01*
G01X3202051Y2247646D01*
G01X3197733Y2234946D01*
G01X3189351Y2226310D01*
G01X3176397Y2221992D01*
G01X3163443Y2221992D01*
G01X3150743Y2226310D01*
G01X3146425Y2230628D01*
G01X3142107Y2239264D01*
G01X3373755Y2311908D02*
G01X3408045Y2221992D01*
G01X3442335Y2311908D02*
G01X3408045Y2221992D01*
G01X3503803Y2311908D02*
G01X3495421Y2307844D01*
G01X3486785Y2299208D01*
G01X3482467Y2290572D01*
G01X3478149Y2277618D01*
G01X3478149Y2256282D01*
G01X3482467Y2243328D01*
G01X3486785Y2234946D01*
G01X3495421Y2226310D01*
G01X3503803Y2221992D01*
G01X3521075Y2221992D01*
G01X3529711Y2226310D01*
G01X3538093Y2234946D01*
G01X3542411Y2243328D01*
G01X3546729Y2256282D01*
G01X3546729Y2277618D01*
G01X3542411Y2290572D01*
G01X3538093Y2299208D01*
G01X3529711Y2307844D01*
G01X3521075Y2311908D01*
G01X3503803Y2311908D01*
G01X3582543Y2311908D02*
G01X3582543Y2247646D01*
G01X3586861Y2234946D01*
G01X3595497Y2226310D01*
G01X3608197Y2221992D01*
G01X3616833Y2221992D01*
G01X3629787Y2226310D01*
G01X3638169Y2234946D01*
G01X3642487Y2247646D01*
G01X3642487Y2311908D01*
G01X3708273Y2311908D02*
G01X3708273Y2221992D01*
G01X3678301Y2311908D02*
G01X3738245Y2311908D01*
G01X2611882Y2108708D02*
G01X2599182Y2104644D01*
G01X2590546Y2091690D01*
G01X2586228Y2070354D01*
G01X2586228Y2057400D01*
G01X2590546Y2036064D01*
G01X2599182Y2023110D01*
G01X2611882Y2018792D01*
G01X2620518Y2018792D01*
G01X2633472Y2023110D01*
G01X2641854Y2036064D01*
G01X2646172Y2057400D01*
G01X2646172Y2070354D01*
G01X2641854Y2091690D01*
G01X2633472Y2104644D01*
G01X2620518Y2108708D01*
G01X2611882Y2108708D01*
G01X2865882Y2108708D02*
G01X2853182Y2104644D01*
G01X2844546Y2091690D01*
G01X2840228Y2070354D01*
G01X2840228Y2057400D01*
G01X2844546Y2036064D01*
G01X2853182Y2023110D01*
G01X2865882Y2018792D01*
G01X2874518Y2018792D01*
G01X2887472Y2023110D01*
G01X2895854Y2036064D01*
G01X2900172Y2057400D01*
G01X2900172Y2070354D01*
G01X2895854Y2091690D01*
G01X2887472Y2104644D01*
G01X2874518Y2108708D01*
G01X2865882Y2108708D01*
G01X3119882Y2108708D02*
G01X3107182Y2104644D01*
G01X3098546Y2091690D01*
G01X3094228Y2070354D01*
G01X3094228Y2057400D01*
G01X3098546Y2036064D01*
G01X3107182Y2023110D01*
G01X3119882Y2018792D01*
G01X3128518Y2018792D01*
G01X3141472Y2023110D01*
G01X3149854Y2036064D01*
G01X3154172Y2057400D01*
G01X3154172Y2070354D01*
G01X3149854Y2091690D01*
G01X3141472Y2104644D01*
G01X3128518Y2108708D01*
G01X3119882Y2108708D01*
G01X3499993Y2108708D02*
G01X3457067Y2108708D01*
G01X3452749Y2070354D01*
G01X3457067Y2074418D01*
G01X3469767Y2078736D01*
G01X3482721Y2078736D01*
G01X3495675Y2074418D01*
G01X3504057Y2066036D01*
G01X3508375Y2053082D01*
G01X3508375Y2044446D01*
G01X3504057Y2031746D01*
G01X3495675Y2023110D01*
G01X3482721Y2018792D01*
G01X3469767Y2018792D01*
G01X3457067Y2023110D01*
G01X3452749Y2027428D01*
G01X3448431Y2036064D01*
G01X3544189Y2108708D02*
G01X3578479Y2018792D01*
G01X3612769Y2108708D02*
G01X3578479Y2018792D01*
G01X3506216Y1926336D02*
G01X3502152Y1913636D01*
G01X3493516Y1905000D01*
G01X3480562Y1900682D01*
G01X3476244Y1900682D01*
G01X3463544Y1905000D01*
G01X3454908Y1913636D01*
G01X3450590Y1926336D01*
G01X3450590Y1930654D01*
G01X3454908Y1943608D01*
G01X3463544Y1952244D01*
G01X3476244Y1956308D01*
G01X3480562Y1956308D01*
G01X3493516Y1952244D01*
G01X3502152Y1943608D01*
G01X3506216Y1926336D01*
G01X3506216Y1905000D01*
G01X3502152Y1883664D01*
G01X3493516Y1870710D01*
G01X3480562Y1866392D01*
G01X3471926Y1866392D01*
G01X3459226Y1870710D01*
G01X3454908Y1879346D01*
G01X3542030Y1956308D02*
G01X3576320Y1866392D01*
G01X3610610Y1956308D02*
G01X3576320Y1866392D01*
G01X2605532Y1939290D02*
G01X2614168Y1943608D01*
G01X2626868Y1956308D01*
G01X2626868Y1866392D01*
G01X2859532Y1939290D02*
G01X2868168Y1943608D01*
G01X2880868Y1956308D01*
G01X2880868Y1866392D01*
G01X3113532Y1939290D02*
G01X3122168Y1943608D01*
G01X3134868Y1956308D01*
G01X3134868Y1866392D01*
G01X3419856Y1786890D02*
G01X3428492Y1791208D01*
G01X3441192Y1803908D01*
G01X3441192Y1713992D01*
G01X3481324Y1782572D02*
G01X3481324Y1786890D01*
G01X3485642Y1795526D01*
G01X3489960Y1799844D01*
G01X3498342Y1803908D01*
G01X3515614Y1803908D01*
G01X3524250Y1799844D01*
G01X3528568Y1795526D01*
G01X3532632Y1786890D01*
G01X3532632Y1778254D01*
G01X3528568Y1769618D01*
G01X3519932Y1756918D01*
G01X3477006Y1713992D01*
G01X3536950Y1713992D01*
G01X3572764Y1803908D02*
G01X3607054Y1713992D01*
G01X3641344Y1803908D02*
G01X3607054Y1713992D01*
G01X2605532Y1786890D02*
G01X2614168Y1791208D01*
G01X2626868Y1803908D01*
G01X2626868Y1713992D01*
G01X2859532Y1786890D02*
G01X2868168Y1791208D01*
G01X2880868Y1803908D01*
G01X2880868Y1713992D01*
G01X3119882Y1803908D02*
G01X3107182Y1799844D01*
G01X3098546Y1786890D01*
G01X3094228Y1765554D01*
G01X3094228Y1752600D01*
G01X3098546Y1731264D01*
G01X3107182Y1718310D01*
G01X3119882Y1713992D01*
G01X3128518Y1713992D01*
G01X3141472Y1718310D01*
G01X3149854Y1731264D01*
G01X3154172Y1752600D01*
G01X3154172Y1765554D01*
G01X3149854Y1786890D01*
G01X3141472Y1799844D01*
G01X3128518Y1803908D01*
G01X3119882Y1803908D01*
G01X3404870Y1630172D02*
G01X3404870Y1634490D01*
G01X3409188Y1643126D01*
G01X3413506Y1647444D01*
G01X3421888Y1651508D01*
G01X3439160Y1651508D01*
G01X3447796Y1647444D01*
G01X3452114Y1643126D01*
G01X3456178Y1634490D01*
G01X3456178Y1625854D01*
G01X3452114Y1617218D01*
G01X3443478Y1604518D01*
G01X3400552Y1561592D01*
G01X3460496Y1561592D01*
G01X3521964Y1651508D02*
G01X3509264Y1647444D01*
G01X3500628Y1634490D01*
G01X3496310Y1613154D01*
G01X3496310Y1600200D01*
G01X3500628Y1578864D01*
G01X3509264Y1565910D01*
G01X3521964Y1561592D01*
G01X3530600Y1561592D01*
G01X3543554Y1565910D01*
G01X3551936Y1578864D01*
G01X3556254Y1600200D01*
G01X3556254Y1613154D01*
G01X3551936Y1634490D01*
G01X3543554Y1647444D01*
G01X3530600Y1651508D01*
G01X3521964Y1651508D01*
G01X3592068Y1651508D02*
G01X3626358Y1561592D01*
G01X3660648Y1651508D02*
G01X3626358Y1561592D01*
G01X3119882Y1651508D02*
G01X3107182Y1647444D01*
G01X3098546Y1634490D01*
G01X3094228Y1613154D01*
G01X3094228Y1600200D01*
G01X3098546Y1578864D01*
G01X3107182Y1565910D01*
G01X3119882Y1561592D01*
G01X3128518Y1561592D01*
G01X3141472Y1565910D01*
G01X3149854Y1578864D01*
G01X3154172Y1600200D01*
G01X3154172Y1613154D01*
G01X3149854Y1634490D01*
G01X3141472Y1647444D01*
G01X3128518Y1651508D01*
G01X3119882Y1651508D01*
G01X2865882Y1651508D02*
G01X2853182Y1647444D01*
G01X2844546Y1634490D01*
G01X2840228Y1613154D01*
G01X2840228Y1600200D01*
G01X2844546Y1578864D01*
G01X2853182Y1565910D01*
G01X2865882Y1561592D01*
G01X2874518Y1561592D01*
G01X2887472Y1565910D01*
G01X2895854Y1578864D01*
G01X2900172Y1600200D01*
G01X2900172Y1613154D01*
G01X2895854Y1634490D01*
G01X2887472Y1647444D01*
G01X2874518Y1651508D01*
G01X2865882Y1651508D01*
G01X2605532Y1634490D02*
G01X2614168Y1638808D01*
G01X2626868Y1651508D01*
G01X2626868Y1561592D01*
G01X2605532Y1482090D02*
G01X2614168Y1486408D01*
G01X2626868Y1499108D01*
G01X2626868Y1409192D01*
G01X2865882Y1499108D02*
G01X2853182Y1495044D01*
G01X2844546Y1482090D01*
G01X2840228Y1460754D01*
G01X2840228Y1447800D01*
G01X2844546Y1426464D01*
G01X2853182Y1413510D01*
G01X2865882Y1409192D01*
G01X2874518Y1409192D01*
G01X2887472Y1413510D01*
G01X2895854Y1426464D01*
G01X2900172Y1447800D01*
G01X2900172Y1460754D01*
G01X2895854Y1482090D01*
G01X2887472Y1495044D01*
G01X2874518Y1499108D01*
G01X2865882Y1499108D01*
G01X3113532Y1482090D02*
G01X3122168Y1486408D01*
G01X3134868Y1499108D01*
G01X3134868Y1409192D01*
G01X3404870Y1477772D02*
G01X3404870Y1482090D01*
G01X3409188Y1490726D01*
G01X3413506Y1495044D01*
G01X3421888Y1499108D01*
G01X3439160Y1499108D01*
G01X3447796Y1495044D01*
G01X3452114Y1490726D01*
G01X3456178Y1482090D01*
G01X3456178Y1473454D01*
G01X3452114Y1464818D01*
G01X3443478Y1452118D01*
G01X3400552Y1409192D01*
G01X3460496Y1409192D01*
G01X3517646Y1499108D02*
G01X3504946Y1495044D01*
G01X3500628Y1486408D01*
G01X3500628Y1477772D01*
G01X3504946Y1469136D01*
G01X3513582Y1464818D01*
G01X3530600Y1460754D01*
G01X3543554Y1456436D01*
G01X3551936Y1447800D01*
G01X3556254Y1439164D01*
G01X3556254Y1426464D01*
G01X3551936Y1417828D01*
G01X3547872Y1413510D01*
G01X3534918Y1409192D01*
G01X3517646Y1409192D01*
G01X3504946Y1413510D01*
G01X3500628Y1417828D01*
G01X3496310Y1426464D01*
G01X3496310Y1439164D01*
G01X3500628Y1447800D01*
G01X3509264Y1456436D01*
G01X3521964Y1460754D01*
G01X3539236Y1464818D01*
G01X3547872Y1469136D01*
G01X3551936Y1477772D01*
G01X3551936Y1486408D01*
G01X3547872Y1495044D01*
G01X3534918Y1499108D01*
G01X3517646Y1499108D01*
G01X3592068Y1499108D02*
G01X3626358Y1409192D01*
G01X3660648Y1499108D02*
G01X3626358Y1409192D01*
G54D11*
G01X3759073Y1979930D02*
G01X3759073Y1830070D01*
G01X3684143Y1905000D02*
G01X3834257Y1905000D01*
G01X3684143Y1397000D02*
G01X3834257Y1397000D01*
G54D12*
G01X1294892Y157353D02*
G01X1384808Y157353D01*
G01X1294892Y157353D02*
G01X1294892Y212979D01*
G01X1337564Y157353D02*
G01X1337564Y191643D01*
G01X1384808Y157353D02*
G01X1384808Y212979D01*
G01X1294892Y248793D02*
G01X1384808Y248793D01*
G01X1294892Y248793D02*
G01X1294892Y287401D01*
G01X1298956Y300355D01*
G01X1303274Y304419D01*
G01X1311910Y308737D01*
G01X1320546Y308737D01*
G01X1329182Y304419D01*
G01X1333246Y300355D01*
G01X1337564Y287401D01*
G01X1337564Y248793D01*
G01X1337564Y278765D02*
G01X1384808Y308737D01*
G01X1294892Y344551D02*
G01X1384808Y344551D01*
G01X1294892Y344551D02*
G01X1294892Y383159D01*
G01X1298956Y396113D01*
G01X1303274Y400177D01*
G01X1311910Y404495D01*
G01X1320546Y404495D01*
G01X1329182Y400177D01*
G01X1333246Y396113D01*
G01X1337564Y383159D01*
G01X1337564Y344551D01*
G01X1337564Y374523D02*
G01X1384808Y404495D01*
G01X1294892Y465963D02*
G01X1298956Y457581D01*
G01X1307592Y448945D01*
G01X1316228Y444627D01*
G01X1329182Y440309D01*
G01X1350518Y440309D01*
G01X1363472Y444627D01*
G01X1371854Y448945D01*
G01X1380490Y457581D01*
G01X1384808Y465963D01*
G01X1384808Y483235D01*
G01X1380490Y491871D01*
G01X1371854Y500253D01*
G01X1363472Y504571D01*
G01X1350518Y508889D01*
G01X1329182Y508889D01*
G01X1316228Y504571D01*
G01X1307592Y500253D01*
G01X1298956Y491871D01*
G01X1294892Y483235D01*
G01X1294892Y465963D01*
G01X1294892Y544703D02*
G01X1384808Y544703D01*
G01X1294892Y544703D02*
G01X1294892Y583311D01*
G01X1298956Y596265D01*
G01X1303274Y600329D01*
G01X1311910Y604647D01*
G01X1320546Y604647D01*
G01X1329182Y600329D01*
G01X1333246Y596265D01*
G01X1337564Y583311D01*
G01X1337564Y544703D01*
G01X1337564Y574675D02*
G01X1384808Y604647D01*
G01X1318260Y740014D02*
G01X1311910Y736966D01*
G01X1305814Y730616D01*
G01X1302766Y724520D01*
G01X1302766Y712074D01*
G01X1305814Y705978D01*
G01X1311910Y699628D01*
G01X1318260Y696580D01*
G01X1327404Y693532D01*
G01X1342898Y693532D01*
G01X1352296Y696580D01*
G01X1358392Y699628D01*
G01X1364742Y705978D01*
G01X1367790Y712074D01*
G01X1367790Y724520D01*
G01X1364742Y730616D01*
G01X1358392Y736966D01*
G01X1352296Y740014D01*
G01X1302766Y770240D02*
G01X1367790Y770240D01*
G01X1302766Y813420D02*
G01X1367790Y813420D01*
G01X1333754Y770240D02*
G01X1333754Y813420D01*
G01X1302766Y843646D02*
G01X1367790Y843646D01*
G01X1302766Y843646D02*
G01X1302766Y883778D01*
G01X1333754Y843646D02*
G01X1333754Y868284D01*
G01X1367790Y843646D02*
G01X1367790Y883778D01*
G01X1318260Y960232D02*
G01X1311910Y957184D01*
G01X1305814Y951088D01*
G01X1302766Y944738D01*
G01X1302766Y932546D01*
G01X1305814Y926196D01*
G01X1311910Y920100D01*
G01X1318260Y917052D01*
G01X1327404Y914004D01*
G01X1342898Y914004D01*
G01X1352296Y917052D01*
G01X1358392Y920100D01*
G01X1364742Y926196D01*
G01X1367790Y932546D01*
G01X1367790Y944738D01*
G01X1364742Y951088D01*
G01X1358392Y957184D01*
G01X1352296Y960232D01*
G01X1302766Y990458D02*
G01X1367790Y990458D01*
G01X1302766Y1033638D02*
G01X1345946Y990458D01*
G01X1330452Y1005698D02*
G01X1367790Y1033638D01*
G01X1302766Y1133206D02*
G01X1367790Y1133206D01*
G01X1302766Y1163432D02*
G01X1367790Y1163432D01*
G01X1302766Y1163432D02*
G01X1302766Y1203564D01*
G01X1333754Y1163432D02*
G01X1333754Y1188070D01*
G01X1302766Y1303132D02*
G01X1333754Y1327770D01*
G01X1367790Y1327770D01*
G01X1302766Y1352662D02*
G01X1333754Y1327770D01*
G01X1302766Y1401430D02*
G01X1305814Y1395080D01*
G01X1311910Y1388984D01*
G01X1318260Y1385936D01*
G01X1327404Y1382888D01*
G01X1342898Y1382888D01*
G01X1352296Y1385936D01*
G01X1358392Y1388984D01*
G01X1364742Y1395080D01*
G01X1367790Y1401430D01*
G01X1367790Y1413622D01*
G01X1364742Y1419972D01*
G01X1358392Y1426068D01*
G01X1352296Y1429116D01*
G01X1342898Y1432418D01*
G01X1327404Y1432418D01*
G01X1318260Y1429116D01*
G01X1311910Y1426068D01*
G01X1305814Y1419972D01*
G01X1302766Y1413622D01*
G01X1302766Y1401430D01*
G01X1302766Y1462644D02*
G01X1349248Y1462644D01*
G01X1358392Y1465692D01*
G01X1364742Y1471788D01*
G01X1367790Y1481186D01*
G01X1367790Y1487282D01*
G01X1364742Y1496680D01*
G01X1358392Y1502776D01*
G01X1349248Y1505824D01*
G01X1302766Y1505824D01*
G01X1302766Y1536050D02*
G01X1367790Y1536050D01*
G01X1302766Y1536050D02*
G01X1302766Y1563736D01*
G01X1305814Y1573134D01*
G01X1308862Y1576182D01*
G01X1315212Y1579230D01*
G01X1321308Y1579230D01*
G01X1327404Y1576182D01*
G01X1330452Y1573134D01*
G01X1333754Y1563736D01*
G01X1333754Y1536050D01*
G01X1333754Y1557640D02*
G01X1367790Y1579230D01*
G01X1429696Y693462D02*
G01X1476178Y693462D01*
G01X1485322Y696510D01*
G01X1491672Y702860D01*
G01X1494720Y712004D01*
G01X1494720Y718354D01*
G01X1491672Y727498D01*
G01X1485322Y733594D01*
G01X1476178Y736896D01*
G01X1429696Y736896D01*
G01X1438840Y810302D02*
G01X1432744Y804206D01*
G01X1429696Y794808D01*
G01X1429696Y782362D01*
G01X1432744Y773218D01*
G01X1438840Y767122D01*
G01X1445190Y767122D01*
G01X1451286Y770170D01*
G01X1454334Y773218D01*
G01X1457382Y779314D01*
G01X1463732Y797856D01*
G01X1466780Y804206D01*
G01X1469828Y807254D01*
G01X1476178Y810302D01*
G01X1485322Y810302D01*
G01X1491672Y804206D01*
G01X1494720Y794808D01*
G01X1494720Y782362D01*
G01X1491672Y773218D01*
G01X1485322Y767122D01*
G01X1429696Y840528D02*
G01X1494720Y840528D01*
G01X1429696Y840528D02*
G01X1429696Y868214D01*
G01X1432744Y877612D01*
G01X1435792Y880660D01*
G01X1442142Y883708D01*
G01X1448238Y883708D01*
G01X1454334Y880660D01*
G01X1457382Y877612D01*
G01X1460684Y868214D01*
G01X1460684Y840528D02*
G01X1460684Y868214D01*
G01X1463732Y877612D01*
G01X1466780Y880660D01*
G01X1472876Y883708D01*
G01X1482274Y883708D01*
G01X1488370Y880660D01*
G01X1491672Y877612D01*
G01X1494720Y868214D01*
G01X1494720Y840528D01*
G01X1466780Y913934D02*
G01X1466780Y969560D01*
G01X1445190Y1046014D02*
G01X1438840Y1042966D01*
G01X1432744Y1036870D01*
G01X1429696Y1030520D01*
G01X1429696Y1018328D01*
G01X1432744Y1011978D01*
G01X1438840Y1005882D01*
G01X1445190Y1002834D01*
G01X1454334Y999786D01*
G01X1469828Y999786D01*
G01X1479226Y1002834D01*
G01X1485322Y1005882D01*
G01X1491672Y1011978D01*
G01X1494720Y1018328D01*
G01X1494720Y1030520D01*
G01X1491672Y1036870D01*
G01X1485322Y1042966D01*
G01X1479226Y1046014D01*
G01X1429696Y1170220D02*
G01X1494720Y1145582D01*
G01X1429696Y1170220D02*
G01X1494720Y1195112D01*
G01X1472876Y1154726D02*
G01X1472876Y1185714D01*
G01X1429696Y1225338D02*
G01X1494720Y1225338D01*
G01X1429696Y1225338D02*
G01X1429696Y1246928D01*
G01X1432744Y1256072D01*
G01X1438840Y1262422D01*
G01X1445190Y1265470D01*
G01X1454334Y1268518D01*
G01X1469828Y1268518D01*
G01X1479226Y1265470D01*
G01X1485322Y1262422D01*
G01X1491672Y1256072D01*
G01X1494720Y1246928D01*
G01X1494720Y1225338D01*
G01X1429696Y1323382D02*
G01X1494720Y1298744D01*
G01X1429696Y1323382D02*
G01X1494720Y1348274D01*
G01X1472876Y1307888D02*
G01X1472876Y1338876D01*
G01X1429696Y1378500D02*
G01X1494720Y1378500D01*
G01X1429696Y1378500D02*
G01X1429696Y1406186D01*
G01X1432744Y1415584D01*
G01X1435792Y1418632D01*
G01X1442142Y1421680D01*
G01X1451286Y1421680D01*
G01X1457382Y1418632D01*
G01X1460684Y1415584D01*
G01X1463732Y1406186D01*
G01X1463732Y1378500D01*
G01X1429696Y1473496D02*
G01X1494720Y1473496D01*
G01X1429696Y1451906D02*
G01X1429696Y1495086D01*
G01X1429696Y1525312D02*
G01X1494720Y1525312D01*
G01X1429696Y1525312D02*
G01X1429696Y1565444D01*
G01X1460684Y1525312D02*
G01X1460684Y1549950D01*
G01X1494720Y1525312D02*
G01X1494720Y1565444D01*
G01X1429696Y1595670D02*
G01X1494720Y1595670D01*
G01X1429696Y1595670D02*
G01X1429696Y1623356D01*
G01X1432744Y1632754D01*
G01X1435792Y1635802D01*
G01X1442142Y1638850D01*
G01X1448238Y1638850D01*
G01X1454334Y1635802D01*
G01X1457382Y1632754D01*
G01X1460684Y1623356D01*
G01X1460684Y1595670D01*
G01X1460684Y1617260D02*
G01X1494720Y1638850D01*
G01X1565910Y736727D02*
G01X1559814Y730377D01*
G01X1556766Y721233D01*
G01X1556766Y708787D01*
G01X1559814Y699389D01*
G01X1565910Y693293D01*
G01X1572260Y693293D01*
G01X1578356Y696341D01*
G01X1581404Y699389D01*
G01X1584452Y705739D01*
G01X1590802Y724281D01*
G01X1593850Y730377D01*
G01X1596898Y733425D01*
G01X1603248Y736727D01*
G01X1612392Y736727D01*
G01X1618742Y730377D01*
G01X1621790Y721233D01*
G01X1621790Y708787D01*
G01X1618742Y699389D01*
G01X1612392Y693293D01*
G01X1556766Y766953D02*
G01X1603248Y766953D01*
G01X1612392Y770001D01*
G01X1618742Y776097D01*
G01X1621790Y785495D01*
G01X1621790Y791591D01*
G01X1618742Y800989D01*
G01X1612392Y807085D01*
G01X1603248Y810133D01*
G01X1556766Y810133D01*
G01X1556766Y840359D02*
G01X1621790Y840359D01*
G01X1556766Y840359D02*
G01X1556766Y868045D01*
G01X1559814Y877443D01*
G01X1562862Y880491D01*
G01X1569212Y883539D01*
G01X1578356Y883539D01*
G01X1584452Y880491D01*
G01X1587754Y877443D01*
G01X1590802Y868045D01*
G01X1590802Y840359D01*
G01X1556766Y913765D02*
G01X1621790Y913765D01*
G01X1556766Y913765D02*
G01X1556766Y941451D01*
G01X1559814Y950849D01*
G01X1562862Y953897D01*
G01X1569212Y956945D01*
G01X1578356Y956945D01*
G01X1584452Y953897D01*
G01X1587754Y950849D01*
G01X1590802Y941451D01*
G01X1590802Y913765D01*
G01X1556766Y1005713D02*
G01X1559814Y999363D01*
G01X1565910Y993267D01*
G01X1572260Y990219D01*
G01X1581404Y987171D01*
G01X1596898Y987171D01*
G01X1606296Y990219D01*
G01X1612392Y993267D01*
G01X1618742Y999363D01*
G01X1621790Y1005713D01*
G01X1621790Y1017905D01*
G01X1618742Y1024255D01*
G01X1612392Y1030351D01*
G01X1606296Y1033399D01*
G01X1596898Y1036701D01*
G01X1581404Y1036701D01*
G01X1572260Y1033399D01*
G01X1565910Y1030351D01*
G01X1559814Y1024255D01*
G01X1556766Y1017905D01*
G01X1556766Y1005713D01*
G01X1556766Y1066927D02*
G01X1621790Y1066927D01*
G01X1556766Y1066927D02*
G01X1556766Y1094613D01*
G01X1559814Y1104011D01*
G01X1562862Y1107059D01*
G01X1569212Y1110107D01*
G01X1575308Y1110107D01*
G01X1581404Y1107059D01*
G01X1584452Y1104011D01*
G01X1587754Y1094613D01*
G01X1587754Y1066927D01*
G01X1587754Y1088517D02*
G01X1621790Y1110107D01*
G01X1556766Y1161923D02*
G01X1621790Y1161923D01*
G01X1556766Y1140333D02*
G01X1556766Y1183513D01*
G01X1565910Y1256919D02*
G01X1559814Y1250823D01*
G01X1556766Y1241425D01*
G01X1556766Y1228979D01*
G01X1559814Y1219835D01*
G01X1565910Y1213739D01*
G01X1572260Y1213739D01*
G01X1578356Y1216787D01*
G01X1581404Y1219835D01*
G01X1584452Y1225931D01*
G01X1590802Y1244473D01*
G01X1593850Y1250823D01*
G01X1596898Y1253871D01*
G01X1603248Y1256919D01*
G01X1612392Y1256919D01*
G01X1618742Y1250823D01*
G01X1621790Y1241425D01*
G01X1621790Y1228979D01*
G01X1618742Y1219835D01*
G01X1612392Y1213739D01*
G01X1556766Y1356487D02*
G01X1621790Y1356487D01*
G01X1556766Y1356487D02*
G01X1556766Y1384173D01*
G01X1559814Y1393571D01*
G01X1562862Y1396619D01*
G01X1569212Y1399667D01*
G01X1578356Y1399667D01*
G01X1584452Y1396619D01*
G01X1587754Y1393571D01*
G01X1590802Y1384173D01*
G01X1590802Y1356487D01*
G01X1556766Y1429893D02*
G01X1621790Y1429893D01*
G01X1556766Y1429893D02*
G01X1556766Y1451483D01*
G01X1559814Y1460627D01*
G01X1565910Y1466977D01*
G01X1572260Y1470025D01*
G01X1581404Y1473073D01*
G01X1596898Y1473073D01*
G01X1606296Y1470025D01*
G01X1612392Y1466977D01*
G01X1618742Y1460627D01*
G01X1621790Y1451483D01*
G01X1621790Y1429893D01*
G01X371094Y2330958D02*
G01X371094Y2236978D01*
G01X365252Y2219452D01*
G01X359410Y2213610D01*
G01X347726Y2207768D01*
G01X336042Y2207768D01*
G01X324104Y2213610D01*
G01X318262Y2219452D01*
G01X312420Y2236978D01*
G01X312420Y2248916D01*
G01X414528Y2307590D02*
G01X426212Y2313432D01*
G01X443992Y2330958D01*
G01X443992Y2207768D01*
G01X4333494Y2356358D02*
G01X4333494Y2262378D01*
G01X4327652Y2244852D01*
G01X4321810Y2239010D01*
G01X4310126Y2233168D01*
G01X4298442Y2233168D01*
G01X4286504Y2239010D01*
G01X4280662Y2244852D01*
G01X4274820Y2262378D01*
G01X4274820Y2274316D01*
G01X4382770Y2327148D02*
G01X4382770Y2332990D01*
G01X4388612Y2344674D01*
G01X4394454Y2350516D01*
G01X4406392Y2356358D01*
G01X4429760Y2356358D01*
G01X4441444Y2350516D01*
G01X4447540Y2344674D01*
G01X4453382Y2332990D01*
G01X4453382Y2321306D01*
G01X4447540Y2309368D01*
G01X4435602Y2291842D01*
G01X4376928Y2233168D01*
G01X4459224Y2233168D01*
G04 Text End*

G04 PolygonModel Start*
G54D13*
G01X2489200Y2184400D02*
G01X3759200Y2184400D01*
G01X3327400Y2336800D02*
G01X3327400Y1574800D01*
G01X3327400Y1574800D02*
G01X3327400Y1402214D01*
G54D12*
G01X913334Y2053284D02*
G01X913334Y2003284D01*
G01X828856Y2068527D02*
G01X898096Y2068527D01*
G01X813616Y2003284D02*
G01X813616Y2053284D01*
G01X813829Y1909007D02*
G01X813829Y1959007D01*
G01X913542Y1959007D02*
G01X913542Y1909007D01*
G01X898307Y1893765D02*
G01X829064Y1893765D01*
G01X913545Y1909007D02*
G02X898305Y1893767I-15240J0D01*
G01X829064Y1893767D02*
G02X813824Y1909007I0J15240D01*
G01X813616Y2053284D02*
G02X828856Y2068524I15240J0D01*
G01X898096Y2068524D02*
G02X913336Y2053284I0J-15240D01*
G01X813742Y1248607D02*
G01X813742Y1298607D01*
G01X898220Y1233365D02*
G01X828980Y1233365D01*
G01X913460Y1298607D02*
G01X913460Y1248607D01*
G01X913247Y1392884D02*
G01X913247Y1342884D01*
G01X813534Y1342884D02*
G01X813534Y1392884D01*
G01X828769Y1408127D02*
G01X898012Y1408127D01*
G01X813532Y1392884D02*
G02X828772Y1408124I15240J0D01*
G01X898012Y1408124D02*
G02X913252Y1392884I0J-15240D01*
G01X913460Y1248607D02*
G02X898220Y1233367I-15240J0D01*
G01X828980Y1233367D02*
G02X813740Y1248607I0J15240D01*
G54D13*
G01X2207181Y1516543D02*
G01X2127184Y1516543D01*
G01X2263226Y1516497D02*
G01X2343224Y1516497D01*
G01X2207181Y1658511D02*
G01X2127184Y1658511D01*
G01X2263226Y1658463D02*
G01X2343224Y1658463D01*
G01X2096209Y1547525D02*
G01X2096209Y1627530D01*
G01X2374202Y1627477D02*
G01X2374202Y1547475D01*
G01X2343219Y1658463D02*
G02X2374202Y1627477I0J-30983D01*
G01X2374202Y1547480D02*
G02X2343219Y1516497I-30983J0D01*
G01X2127189Y1516543D02*
G02X2096209Y1547525I3J30983D01*
G01X2096209Y1627523D02*
G02X2127189Y1658511I30983J5D01*
G54D12*
G01X3709523Y1578949D02*
G01X3709523Y1628949D01*
G01X3794001Y1563707D02*
G01X3724760Y1563707D01*
G01X3809241Y1628949D02*
G01X3809241Y1578949D01*
G01X3809027Y1723226D02*
G01X3809027Y1673227D01*
G01X3709314Y1673227D02*
G01X3709314Y1723226D01*
G01X3724549Y1738469D02*
G01X3793792Y1738469D01*
G01X3709312Y1723226D02*
G02X3724552Y1738466I15240J0D01*
G01X3793792Y1738466D02*
G02X3809032Y1723226I0J-15240D01*
G01X3809241Y1578949D02*
G02X3794001Y1563709I-15240J0D01*
G01X3724760Y1563709D02*
G02X3709520Y1578949I0J15240D01*
G01X2056354Y1138939D02*
G01X2056354Y1088939D01*
G01X1971876Y1154181D02*
G01X2041116Y1154181D01*
G01X1956636Y1088939D02*
G01X1956636Y1138939D01*
G01X1956849Y994661D02*
G01X1956849Y1044661D01*
G01X2056562Y1044661D02*
G01X2056562Y994661D01*
G01X2041327Y979419D02*
G01X1972084Y979419D01*
G01X2056564Y994661D02*
G02X2041324Y979421I-15240J0D01*
G01X1972084Y979421D02*
G02X1956844Y994661I0J15240D01*
G01X1956636Y1138939D02*
G02X1971876Y1154179I15240J0D01*
G01X2041116Y1154179D02*
G02X2056356Y1138939I0J-15240D01*
G54D13*
G01X1145732Y553589D02*
G01X1225729Y553589D01*
G01X1089686Y553635D02*
G01X1009689Y553635D01*
G01X1145732Y411621D02*
G01X1225729Y411621D01*
G01X1089686Y411669D02*
G01X1009689Y411669D01*
G01X1256704Y522607D02*
G01X1256704Y442602D01*
G01X978711Y442655D02*
G01X978711Y522657D01*
G01X1009694Y411669D02*
G02X978711Y442655I0J30983D01*
G01X978711Y522652D02*
G02X1009694Y553635I30983J0D01*
G01X1225724Y553589D02*
G02X1256704Y522607I-3J-30983D01*
G01X1256704Y442609D02*
G02X1225724Y411621I-30983J-5D01*
G01X1145619Y401157D02*
G01X1225616Y401157D01*
G01X1089574Y401203D02*
G01X1009576Y401203D01*
G01X1145619Y259189D02*
G01X1225616Y259189D01*
G01X1089574Y259237D02*
G01X1009576Y259237D01*
G01X1256591Y370175D02*
G01X1256591Y290170D01*
G01X978599Y290223D02*
G01X978599Y370225D01*
G01X1009581Y259237D02*
G02X978599Y290223I0J30983D01*
G01X978599Y370220D02*
G02X1009581Y401203I30983J0D01*
G01X1225611Y401157D02*
G02X1256591Y370175I-3J-30983D01*
G01X1256591Y290177D02*
G02X1225611Y259189I-30983J-5D01*
G01X1145619Y248757D02*
G01X1225616Y248757D01*
G01X1089574Y248803D02*
G01X1009576Y248803D01*
G01X1145619Y106789D02*
G01X1225616Y106789D01*
G01X1089574Y106837D02*
G01X1009576Y106837D01*
G01X1256591Y217775D02*
G01X1256591Y137770D01*
G01X978599Y137823D02*
G01X978599Y217825D01*
G01X1009581Y106837D02*
G02X978599Y137823I0J30983D01*
G01X978599Y217820D02*
G02X1009581Y248803I30983J0D01*
G01X1225611Y248757D02*
G02X1256591Y217775I-3J-30983D01*
G01X1256591Y137777D02*
G02X1225611Y106789I-30983J-5D01*
G01X1145672Y1188493D02*
G01X1225669Y1188493D01*
G01X1089627Y1188539D02*
G01X1009630Y1188539D01*
G01X1145672Y1046525D02*
G01X1225669Y1046525D01*
G01X1089627Y1046573D02*
G01X1009630Y1046573D01*
G01X1256645Y1157510D02*
G01X1256645Y1077505D01*
G01X978652Y1077558D02*
G01X978652Y1157561D01*
G01X1009635Y1046573D02*
G02X978652Y1077558I0J30983D01*
G01X978652Y1157556D02*
G02X1009635Y1188539I30983J0D01*
G01X1225664Y1188493D02*
G02X1256645Y1157510I-3J-30983D01*
G01X1256645Y1077513D02*
G02X1225664Y1046525I-30983J-5D01*
G54D14*
G01X993600Y1516071D02*
G01X1007969Y1501703D01*
G01X1007969Y1501703D02*
G01X936414Y1430148D01*
G01X936414Y1430148D02*
G01X922787Y1444328D01*
G54D12*
G01X922787Y1444328D02*
G01X994065Y1515606D01*
G01X994065Y1515606D02*
G01X947566Y1562106D01*
G54D14*
G01X994065Y1515606D02*
G01X1007407Y1502265D01*
G54D12*
G01X876288Y1490828D02*
G01X922787Y1444328D01*
G01X922787Y1444328D02*
G01X994065Y1515606D01*
G01X994065Y1515606D02*
G01X947566Y1562106D01*
G01X901799Y1607894D02*
G01X855301Y1654392D01*
G01X855301Y1654392D02*
G01X784021Y1583112D01*
G01X784021Y1583112D02*
G01X830519Y1536614D01*
G54D14*
G01X784021Y1583112D02*
G01X770676Y1596457D01*
G01X770676Y1596457D02*
G01X841667Y1667448D01*
G01X841667Y1667448D02*
G01X864515Y1644600D01*
G54D15*
G01X871092Y1531391D02*
G01X907013Y1567312D01*
G36*
G01X889052Y1549352D02*
G01X868541Y1542994D01*
G01X895410Y1569863D01*
G01X889052Y1549352D01*
G37*
G36*
G01X889745Y1550045D02*
G01X910264Y1555009D01*
G01X897539Y1542281D01*
G01X883395Y1528141D01*
G01X889745Y1550045D01*
G37*
G54D14*
G01X922323Y1857118D02*
G01X936691Y1871486D01*
G01X936691Y1871486D02*
G01X1008246Y1799932D01*
G01X1008246Y1799932D02*
G01X994066Y1786305D01*
G54D12*
G01X994066Y1786305D02*
G01X922788Y1857583D01*
G01X922788Y1857583D02*
G01X876288Y1811083D01*
G54D14*
G01X922788Y1857583D02*
G01X936129Y1870924D01*
G54D12*
G01X947566Y1739805D02*
G01X994066Y1786305D01*
G01X994066Y1786305D02*
G01X922788Y1857583D01*
G01X922788Y1857583D02*
G01X876288Y1811083D01*
G01X830500Y1765316D02*
G01X784002Y1718818D01*
G01X784002Y1718818D02*
G01X855282Y1647539D01*
G01X855282Y1647539D02*
G01X901780Y1694037D01*
G54D14*
G01X855282Y1647539D02*
G01X841937Y1634194D01*
G01X841937Y1634194D02*
G01X770946Y1705185D01*
G01X770946Y1705185D02*
G01X793794Y1728032D01*
G54D15*
G01X907003Y1734609D02*
G01X871081Y1770530D01*
G36*
G01X889042Y1752570D02*
G01X895400Y1732059D01*
G01X868531Y1758928D01*
G01X889042Y1752570D01*
G37*
G36*
G01X888349Y1753263D02*
G01X883384Y1773781D01*
G01X896113Y1761056D01*
G01X910253Y1746912D01*
G01X888349Y1753263D01*
G37*
G54D13*
G01X241305Y1193792D02*
G01X440700Y1193792D01*
G01X-101597Y1193792D02*
G01X45700Y1193792D01*
G01X241618Y2100991D02*
G01X440390Y2100991D01*
G01X-116497Y2100991D02*
G01X45387Y2100991D01*
G01X-116497Y1200993D02*
G01X-116497Y2100991D01*
G01X4722998Y1805285D02*
G01X4518000Y1805285D01*
G01X4518000Y1805285D02*
G01X4518000Y2005000D01*
G01X4518000Y2005000D02*
G01X4722998Y2005000D01*
G01X4722998Y1297285D02*
G01X4518000Y1297285D01*
G01X4518000Y1297285D02*
G01X4518000Y1497000D01*
G01X4518000Y1497000D02*
G01X4722998Y1497000D01*
G01X4068001Y2159000D02*
G01X4068001Y1143000D01*
G01X3913002Y1143000D02*
G01X4722998Y1143000D01*
G01X4722998Y1143000D02*
G01X4722998Y1881635D01*
G01X4722998Y1881635D02*
G01X4722873Y2159000D01*
G01X4722873Y2159000D02*
G01X3913002Y2159000D01*
G01X3913002Y2159000D02*
G01X3913002Y1789981D01*
G01X3913002Y1789981D02*
G01X3913002Y1143000D01*
G36*
G01X4722998Y1397000D02*
G01X4722998Y1377000D01*
G01X4617999Y1377000D01*
G01X4617999Y1337000D01*
G01X4558000Y1397000D01*
G01X4617999Y1457000D01*
G01X4617999Y1417000D01*
G01X4722998Y1417000D01*
G01X4722998Y1397000D01*
G37*
G36*
G01X4722998Y1905000D02*
G01X4722998Y1885000D01*
G01X4617999Y1885000D01*
G01X4617999Y1845000D01*
G01X4558000Y1905000D01*
G01X4617999Y1965000D01*
G01X4617999Y1925000D01*
G01X4722998Y1925000D01*
G01X4722998Y1905000D01*
G37*
G01X1572445Y347118D02*
G01X1532446Y387118D01*
G01X1532446Y387118D02*
G01X1522446Y397118D01*
G01X1522446Y397118D02*
G01X1512420Y387118D01*
G01X1512420Y387118D02*
G01X1472420Y347118D01*
G01X1572445Y347118D02*
G01X1472420Y347118D01*
G01X1420719Y322795D02*
G01X1420719Y167855D01*
G01X1420719Y167855D02*
G01X1623919Y167855D01*
G01X1623919Y167855D02*
G01X1623919Y322795D01*
G01X1418179Y401535D02*
G01X1418179Y548855D01*
G01X1418179Y548855D02*
G01X1458819Y589495D01*
G01X1458819Y589495D02*
G01X1585819Y589495D01*
G01X1585819Y589495D02*
G01X1623919Y551395D01*
G01X1623919Y551395D02*
G01X1623919Y398995D01*
G01X3576000Y2564600D02*
G01X3536000Y2524600D01*
G01X3536000Y2524600D02*
G01X3526000Y2514600D01*
G01X3526000Y2514600D02*
G01X3536000Y2504575D01*
G01X3536000Y2504575D02*
G01X3576000Y2464575D01*
G01X3576000Y2564600D02*
G01X3576000Y2464575D01*
G01X3600323Y2412873D02*
G01X3755263Y2412873D01*
G01X3755263Y2412873D02*
G01X3755263Y2616073D01*
G01X3755263Y2616073D02*
G01X3600323Y2616073D01*
G01X3521583Y2410333D02*
G01X3374263Y2410333D01*
G01X3374263Y2410333D02*
G01X3333623Y2450973D01*
G01X3333623Y2450973D02*
G01X3333623Y2577973D01*
G01X3333623Y2577973D02*
G01X3371723Y2616073D01*
G01X3371723Y2616073D02*
G01X3524123Y2616073D01*
G01X2941000Y2564600D02*
G01X2901000Y2524600D01*
G01X2901000Y2524600D02*
G01X2891000Y2514600D01*
G01X2891000Y2514600D02*
G01X2901000Y2504575D01*
G01X2901000Y2504575D02*
G01X2941000Y2464575D01*
G01X2941000Y2564600D02*
G01X2941000Y2464575D01*
G01X2965323Y2412873D02*
G01X3120263Y2412873D01*
G01X3120263Y2412873D02*
G01X3120263Y2616073D01*
G01X3120263Y2616073D02*
G01X2965323Y2616073D01*
G01X2886583Y2410333D02*
G01X2739263Y2410333D01*
G01X2739263Y2410333D02*
G01X2698623Y2450973D01*
G01X2698623Y2450973D02*
G01X2698623Y2577973D01*
G01X2698623Y2577973D02*
G01X2736723Y2616073D01*
G01X2736723Y2616073D02*
G01X2889123Y2616073D01*
G01X2306000Y2564600D02*
G01X2266000Y2524600D01*
G01X2266000Y2524600D02*
G01X2256000Y2514600D01*
G01X2256000Y2514600D02*
G01X2266000Y2504575D01*
G01X2266000Y2504575D02*
G01X2306000Y2464575D01*
G01X2306000Y2564600D02*
G01X2306000Y2464575D01*
G01X2330323Y2412873D02*
G01X2485263Y2412873D01*
G01X2485263Y2412873D02*
G01X2485263Y2616073D01*
G01X2485263Y2616073D02*
G01X2330323Y2616073D01*
G01X2251583Y2410333D02*
G01X2104263Y2410333D01*
G01X2104263Y2410333D02*
G01X2063623Y2450973D01*
G01X2063623Y2450973D02*
G01X2063623Y2577973D01*
G01X2063623Y2577973D02*
G01X2101723Y2616073D01*
G01X2101723Y2616073D02*
G01X2254123Y2616073D01*
G01X1671000Y2564600D02*
G01X1631000Y2524600D01*
G01X1631000Y2524600D02*
G01X1621000Y2514600D01*
G01X1621000Y2514600D02*
G01X1631000Y2504575D01*
G01X1631000Y2504575D02*
G01X1671000Y2464575D01*
G01X1671000Y2564600D02*
G01X1671000Y2464575D01*
G01X1695323Y2412873D02*
G01X1850263Y2412873D01*
G01X1850263Y2412873D02*
G01X1850263Y2616073D01*
G01X1850263Y2616073D02*
G01X1695323Y2616073D01*
G01X1616583Y2410333D02*
G01X1469263Y2410333D01*
G01X1469263Y2410333D02*
G01X1428623Y2450973D01*
G01X1428623Y2450973D02*
G01X1428623Y2577973D01*
G01X1428623Y2577973D02*
G01X1466723Y2616073D01*
G01X1466723Y2616073D02*
G01X1619123Y2616073D01*
G01X1036000Y2564600D02*
G01X996000Y2524600D01*
G01X996000Y2524600D02*
G01X986000Y2514600D01*
G01X986000Y2514600D02*
G01X996000Y2504575D01*
G01X996000Y2504575D02*
G01X1036000Y2464575D01*
G01X1036000Y2564600D02*
G01X1036000Y2464575D01*
G01X1060323Y2412873D02*
G01X1215263Y2412873D01*
G01X1215263Y2412873D02*
G01X1215263Y2616073D01*
G01X1215263Y2616073D02*
G01X1060323Y2616073D01*
G01X981583Y2410333D02*
G01X834263Y2410333D01*
G01X834263Y2410333D02*
G01X793623Y2450973D01*
G01X793623Y2450973D02*
G01X793623Y2577973D01*
G01X793623Y2577973D02*
G01X831723Y2616073D01*
G01X831723Y2616073D02*
G01X984123Y2616073D01*
G54D17*
G01X1762681Y1086278D02*
G01X1742509Y1086278D01*
G01X1842595Y1086278D02*
G01X1842508Y1086278D01*
G01X1712681Y996276D02*
G01X1662595Y996276D01*
G01X1842595Y996276D02*
G01X1792508Y996276D01*
G01X1842595Y996276D02*
G01X1842595Y1086278D01*
G01X1662595Y996276D02*
G01X1662595Y1086278D01*
G01X1662681Y1086278D02*
G01X1662595Y1086278D01*
G54D12*
G01X1802455Y231291D02*
G01X1802455Y159488D01*
G01X1802455Y159488D02*
G01X1702735Y159488D01*
G01X1702735Y159488D02*
G01X1702735Y231291D01*
G01X1802455Y276534D02*
G01X1802455Y348337D01*
G01X1802455Y348337D02*
G01X1702735Y348337D01*
G01X1702735Y348337D02*
G01X1702735Y276534D01*
G01X1702786Y810074D02*
G01X1702786Y881877D01*
G01X1702786Y881877D02*
G01X1802506Y881877D01*
G01X1802506Y881877D02*
G01X1802506Y810074D01*
G01X1702786Y764831D02*
G01X1702786Y693028D01*
G01X1702786Y693028D02*
G01X1802506Y693028D01*
G01X1802506Y693028D02*
G01X1802506Y764831D01*
G01X1546621Y1777060D02*
G01X1618425Y1777060D01*
G01X1618425Y1777060D02*
G01X1618425Y1677340D01*
G01X1618425Y1677340D02*
G01X1546621Y1677340D01*
G01X1501379Y1777060D02*
G01X1429576Y1777060D01*
G01X1429576Y1777060D02*
G01X1429576Y1677340D01*
G01X1429576Y1677340D02*
G01X1501379Y1677340D01*
G01X2767630Y1044231D02*
G01X2767630Y972428D01*
G01X2767630Y972428D02*
G01X2667909Y972428D01*
G01X2667909Y972428D02*
G01X2667909Y1044231D01*
G01X2767630Y1089474D02*
G01X2767630Y1161277D01*
G01X2767630Y1161277D02*
G01X2667909Y1161277D01*
G01X2667909Y1161277D02*
G01X2667909Y1089474D01*
G01X2564460Y1044179D02*
G01X2564460Y972376D01*
G01X2564460Y972376D02*
G01X2464740Y972376D01*
G01X2464740Y972376D02*
G01X2464740Y1044179D01*
G01X2564460Y1089421D02*
G01X2564460Y1161225D01*
G01X2564460Y1161225D02*
G01X2464740Y1161225D01*
G01X2464740Y1161225D02*
G01X2464740Y1089421D01*
G01X2666060Y1044179D02*
G01X2666060Y972376D01*
G01X2666060Y972376D02*
G01X2566340Y972376D01*
G01X2566340Y972376D02*
G01X2566340Y1044179D01*
G01X2666060Y1089421D02*
G01X2666060Y1161225D01*
G01X2666060Y1161225D02*
G01X2566340Y1161225D01*
G01X2566340Y1161225D02*
G01X2566340Y1089421D01*
G01X2769598Y1089400D02*
G01X2769598Y1161203D01*
G01X2769598Y1161203D02*
G01X2869319Y1161203D01*
G01X2869319Y1161203D02*
G01X2869319Y1089400D01*
G01X2769598Y1044157D02*
G01X2769598Y972354D01*
G01X2769598Y972354D02*
G01X2869319Y972354D01*
G01X2869319Y972354D02*
G01X2869319Y1044157D01*
G01X1501359Y1982200D02*
G01X1429556Y1982200D01*
G01X1429556Y1982200D02*
G01X1429556Y2081920D01*
G01X1429556Y2081920D02*
G01X1501359Y2081920D01*
G01X1546601Y1982200D02*
G01X1618405Y1982200D01*
G01X1618405Y1982200D02*
G01X1618405Y2081920D01*
G01X1618405Y2081920D02*
G01X1546601Y2081920D01*
G01X2158060Y1044179D02*
G01X2158060Y972376D01*
G01X2158060Y972376D02*
G01X2058340Y972376D01*
G01X2058340Y972376D02*
G01X2058340Y1044179D01*
G01X2158060Y1089421D02*
G01X2158060Y1161225D01*
G01X2158060Y1161225D02*
G01X2058340Y1161225D01*
G01X2058340Y1161225D02*
G01X2058340Y1089421D01*
G01X913455Y764714D02*
G01X913455Y692911D01*
G01X913455Y692911D02*
G01X813735Y692911D01*
G01X813735Y692911D02*
G01X813735Y764714D01*
G01X913455Y809957D02*
G01X913455Y881760D01*
G01X913455Y881760D02*
G01X813735Y881760D01*
G01X813735Y881760D02*
G01X813735Y809957D01*
G01X2462860Y1044179D02*
G01X2462860Y972376D01*
G01X2462860Y972376D02*
G01X2363140Y972376D01*
G01X2363140Y972376D02*
G01X2363140Y1044179D01*
G01X2462860Y1089421D02*
G01X2462860Y1161225D01*
G01X2462860Y1161225D02*
G01X2363140Y1161225D01*
G01X2363140Y1161225D02*
G01X2363140Y1089421D01*
G01X2259660Y1044179D02*
G01X2259660Y972376D01*
G01X2259660Y972376D02*
G01X2159940Y972376D01*
G01X2159940Y972376D02*
G01X2159940Y1044179D01*
G01X2259660Y1089421D02*
G01X2259660Y1161225D01*
G01X2259660Y1161225D02*
G01X2159940Y1161225D01*
G01X2159940Y1161225D02*
G01X2159940Y1089421D01*
G01X2361260Y1044179D02*
G01X2361260Y972376D01*
G01X2361260Y972376D02*
G01X2261540Y972376D01*
G01X2261540Y972376D02*
G01X2261540Y1044179D01*
G01X2361260Y1089421D02*
G01X2361260Y1161225D01*
G01X2361260Y1161225D02*
G01X2261540Y1161225D01*
G01X2261540Y1161225D02*
G01X2261540Y1089421D01*
G01X2970860Y1044179D02*
G01X2970860Y972376D01*
G01X2970860Y972376D02*
G01X2871140Y972376D01*
G01X2871140Y972376D02*
G01X2871140Y1044179D01*
G01X2970860Y1089421D02*
G01X2970860Y1161225D01*
G01X2970860Y1161225D02*
G01X2871140Y1161225D01*
G01X2871140Y1161225D02*
G01X2871140Y1089421D01*
G01X3151005Y435805D02*
G01X3151005Y885085D01*
G01X3151005Y885085D02*
G01X3707244Y885085D01*
G01X3707244Y885085D02*
G01X3707244Y435805D01*
G01X3707244Y435805D02*
G01X3151005Y435805D01*
G54D18*
G01X1257970Y877429D02*
G01X1272565Y877429D01*
G01X1162972Y877429D02*
G01X1167140Y877429D01*
G01X1067978Y877429D02*
G01X1072144Y877429D01*
G01X962563Y877429D02*
G01X977148Y877429D01*
G01X1257970Y697427D02*
G01X1272565Y697427D01*
G01X1067978Y697427D02*
G01X1167142Y697427D01*
G01X962563Y697427D02*
G01X977150Y697427D01*
G01X962563Y697427D02*
G01X962563Y877429D01*
G01X1272565Y697427D02*
G01X1272565Y877429D01*
G36*
G01X1219159Y807833D02*
G02X1219159Y843233I-212J17700D01*
G02X1219159Y807833I212J-17700D01*
G37*
G54D12*
G01X1859662Y355795D02*
G01X1859662Y660076D01*
G01X1859662Y660076D02*
G01X2864903Y660076D01*
G01X2864903Y660076D02*
G01X2864903Y355795D01*
G01X2864903Y355795D02*
G01X1859662Y355795D01*
G01X2165020Y1746574D02*
G01X1949780Y1746574D01*
G01X2165020Y1961814D02*
G01X1949780Y1961814D01*

G04 Circle Start*
G54D17*
G01X1846892Y1117274D02*
G03X1860304Y1117274I6706J0D01*
G03X1846892Y1117274I-6706J0D01*
G54D19*
G01X3287113Y511042D02*
G03X3317136Y511042I15011J0D01*
G03X3287113Y511042I-15011J0D01*
G01X3213885Y280181D02*
G03X3243908Y280181I15011J0D01*
G03X3213885Y280181I-15011J0D01*
G01X1902771Y431024D02*
G03X1932794Y431024I15011J0D01*
G03X1902771Y431024I-15011J0D01*
G01X1826571Y241235D02*
G03X1856594Y241235I15011J0D01*
G03X1826571Y241235I-15011J0D01*
G54D20*
G01X2197900Y1774194D02*
G03X2212901Y1774194I7501J0D01*
G03X2197900Y1774194I-7501J0D01*
G04 Circle End*

M02*

